<?xml version="1.0" encoding="UTF-8" standalone="no"?>
<!-- Created with Inkscape (http://www.inkscape.org/) -->

<svg
   width="80.848198mm"
   height="22.156208mm"
   viewBox="0 0 80.848198 22.156208"
   version="1.1"
   id="svg1"
   xmlns="http://www.w3.org/2000/svg"
   xmlns:svg="http://www.w3.org/2000/svg">
  <defs
     id="defs1">
    <clipPath
       clipPathUnits="userSpaceOnUse"
       id="clipPath8">
      <path
         d="M 0,841.89 H 595.276 V 0 H 0 Z"
         id="path8" />
    </clipPath>
    <clipPath
       clipPathUnits="userSpaceOnUse"
       id="clipPath10">
      <path
         d="M 0,841.89 H 595.276 V 0 H 0 Z"
         transform="translate(-196.1895,-728.15382)"
         id="path10" />
    </clipPath>
    <clipPath
       clipPathUnits="userSpaceOnUse"
       id="clipPath12">
      <path
         d="M 0,841.89 H 595.276 V 0 H 0 Z"
         transform="translate(-148.70211,-709.86082)"
         id="path12" />
    </clipPath>
    <clipPath
       clipPathUnits="userSpaceOnUse"
       id="clipPath14">
      <path
         d="M 0,841.89 H 595.276 V 0 H 0 Z"
         transform="translate(-55.492201,-738.38042)"
         id="path14" />
    </clipPath>
  </defs>
  <g
     id="layer1"
     transform="translate(-64.29375,-137.31876)">
    <path
       id="path7"
       d="M 30.79,754.869 H 259.966 V 692.064 H 30.79 Z"
       style="fill:#00613f;fill-opacity:1;fill-rule:evenodd;stroke:none"
       transform="matrix(0.35277776,0,0,-0.35277776,53.431723,403.61975)"
       clip-path="url(#clipPath8)" />
    <path
       id="path9"
       d="m 0,0 c 0,-3.352 -2.695,-6.046 -6.049,-6.046 -3.353,0 -6.049,2.694 -6.049,6.046 v 5.914 c 0,0 0.066,1.577 -0.526,2.169 -0.46,0.328 -1.446,0.46 -1.446,0.46 l -0.067,2.234 h 8.022 V 8.543 c 0,0 -1.006,-0.17 -1.447,-0.592 C -8.159,7.38 -8.153,5.914 -8.153,5.914 l 0.065,-6.177 c 0,-1.511 1.25,-2.695 2.762,-2.695 1.513,0 2.762,1.184 2.762,2.695 v 6.177 c 0,0 0.065,1.577 -0.526,2.169 -0.461,0.328 -1.513,0.46 -1.513,0.46 l 0.066,2.234 h 6.443 1.578 7.167 c 2.669,-0.032 4.932,-1.99 4.932,-4.271 0,-1.709 -1.184,-3.22 -2.959,-3.943 0,0 0.395,-0.329 0.592,-0.46 1.314,-1.38 0.854,-3.22 2.367,-4.469 0.065,0 0.328,-0.263 0.657,-0.394 0.185,-0.062 0.382,-0.097 0.566,-0.118 0.366,0.134 0.815,0.512 0.815,0.512 l 3.748,9.332 c 0,0 -0.071,0.673 -0.329,0.985 -0.382,0.464 -1.446,0.526 -1.446,0.526 l 0.065,2.234 h 6.904 V 8.477 l 3.748,-10.843 c 0,0 0.646,-0.425 1.118,-0.526 0.214,-0.046 0.486,-0.05 0.722,-0.042 0,0.042 0.192,0.018 0.402,0.028 l 0.125,0.014 c 0.096,0.012 0.189,0.03 0.262,0.066 0.132,0.132 0.24,0.215 0.33,0.394 0.127,0.257 0.163,0.438 0.13,0.723 l -0.065,7.623 c 0,0 0.065,1.512 -0.525,2.103 -0.461,0.329 -1.513,0.526 -1.513,0.526 v 2.168 h 8.087 L 39.318,8.477 c 0,0 -0.993,-0.132 -1.446,-0.526 C 37.229,7.393 37.28,5.849 37.28,5.849 v -7.558 c 0,0 0.049,-0.471 0.198,-0.723 0.128,-0.218 0.46,-0.46 0.46,-0.46 h 3.418 c 0,0 0.511,0.051 0.724,0.263 0.242,0.242 0.197,0.855 0.197,0.855 v 1.117 h 3.025 V -5.389 H 32.678 32.151 24.064 l 0.066,2.497 h 1.315 c 0,0 0.284,0.065 0.395,0.198 0.088,0.105 0.131,0.328 0.131,0.328 l -0.526,2.169 h -2.499 l -0.657,2.102 h 2.565 L 23.21,5.98 20.843,-1.512 c -0.181,-0.309 -0.181,-0.61 0,-0.92 0.091,-0.156 0.065,-0.197 0.329,-0.328 0.46,-0.263 1.446,-0.132 1.446,-0.132 L 22.552,-5.389 H 17.555 15.386 12.689 L 8.744,2.826 v 1.051 c 0.646,-0.169 1.078,-0.149 1.71,0.065 0.458,0.157 0.756,0.275 1.052,0.658 0.328,0.423 0.36,0.78 0.394,1.314 0.057,0.857 0.069,1.642 -0.657,2.103 C 10.802,8.298 9.928,8.28 9.928,8.28 9.928,8.28 8.876,8.346 8.416,7.951 7.824,7.426 7.956,5.849 7.956,5.849 v -7.558 l 0.131,-0.657 c 0,0 0.263,-0.263 0.46,-0.394 0.461,-0.198 1.381,-0.132 1.381,-0.132 V -5.389 H 1.973 v 2.497 c 0,0 0.92,-0.066 1.381,0.132 0.197,0.131 0.346,0.187 0.459,0.394 0.124,0.226 0.128,0.407 0.066,0.657 l 0.066,7.623 c 0,0 0.066,1.512 -0.526,2.103 C 2.959,8.346 1.906,8.543 1.906,8.543 1.374,8.475 0.832,8.311 0.525,7.951 -0.007,7.327 0,5.914 0,5.914 Z m -19.002,10.777 c 2.695,0 4.932,-1.971 4.932,-4.271 0,-1.709 -1.25,-3.22 -2.959,-3.943 0,0 0.394,-0.329 0.525,-0.46 1.381,-1.38 0.921,-3.22 2.367,-4.469 0.067,0 0.329,-0.263 0.724,-0.394 0.526,-0.198 1.315,-0.132 1.315,-0.132 v -2.497 h -4.866 l -4.011,8.215 v 1.051 c 0.67,-0.175 1.125,-0.172 1.776,0.065 0.454,0.167 0.756,0.275 1.052,0.658 0.327,0.423 0.36,0.78 0.394,1.314 0.056,0.857 0.068,1.642 -0.657,2.103 -0.442,0.281 -1.315,0.263 -1.315,0.263 0,0 -1.052,0.066 -1.512,-0.329 -0.592,-0.525 -0.527,-2.102 -0.527,-2.102 v -7.558 l 0.198,-0.657 c 0,0 0.197,-0.263 0.394,-0.394 0.526,-0.198 1.447,-0.132 1.447,-0.132 v -2.497 h -8.088 l 0.066,2.497 c 0,0 0.921,-0.066 1.381,0.132 0.263,0.131 0.394,0.174 0.526,0.394 0.133,0.221 0.134,0.409 0.066,0.657 v 7.623 c 0,0 0.066,1.512 -0.526,2.103 -0.394,0.329 -1.513,0.526 -1.513,0.526 v 2.168 z m -37.74,0 h 8.021 V 8.543 c 0,0 -1.054,-0.154 -1.512,-0.592 -0.594,-0.566 -0.527,-2.037 -0.527,-2.037 v -6.111 c 0,0 -0.209,-3.062 -1.314,-4.534 -1.322,-1.762 -4.997,-2.629 -4.997,-2.629 v 1.971 c 0,0 1.217,0.491 1.71,1.118 0.5,0.637 0.657,1.971 0.657,1.971 l -0.066,8.214 c 0,0 0.131,1.577 -0.46,2.169 -0.46,0.328 -1.512,0.46 -1.512,0.46 z M -72.193,-1.709 -68.644,6.9 c 0,0 -0.055,0.72 -0.328,1.051 -0.382,0.464 -1.447,0.526 -1.447,0.526 v 2.234 h 6.97 V 8.477 l 3.682,-10.843 c 0,0 0.694,-0.404 1.183,-0.526 0.476,-0.119 1.25,-0.131 1.25,-0.131 v -2.366 h -8.548 v 2.497 h 1.316 c 0,0 0.279,0.017 0.394,0.132 0.114,0.114 0.131,0.394 0.131,0.394 l -0.525,2.169 h -2.499 l -0.658,2.037 h 2.565 l -1.645,4.074 -2.366,-7.491 c -0.115,-0.231 -0.124,-0.406 -0.066,-0.657 0.057,-0.25 0.131,-0.395 0.394,-0.526 0.395,-0.329 1.446,-0.132 1.446,-0.132 v -2.563 h -10.256 c 0,0 -4.629,0.532 -6.378,2.563 -1.599,1.858 -1.957,3.609 -1.709,6.046 0.213,2.1 0.789,3.417 2.235,4.929 1.578,1.643 3.091,2.037 5.26,2.563 0.789,0.197 1.644,0.065 2.63,0.065 1.71,0 3.353,-0.196 3.353,-0.196 V 4.929 h -2.892 l 0.065,2.168 c 0,0.132 -0.065,0.263 -0.132,0.329 -0.131,0.065 -0.394,0.131 -0.394,0.131 0,0 -0.92,0.131 -1.512,0.131 -0.592,0 -1.513,-0.131 -1.513,-0.131 0,0 -0.788,-0.131 -1.249,-0.394 -0.46,-0.329 -0.587,-0.596 -0.854,-1.052 -0.618,-1.054 -0.527,-1.905 -0.527,-3.089 0,-1.182 -0.008,-2.027 0.527,-3.154 0.262,-0.552 0.46,-0.92 0.854,-1.314 0.527,-0.526 0.759,-0.761 1.381,-0.986 0.796,-0.288 1.316,-0.065 2.17,-0.065 0.592,0 1.512,0 2.235,0.065 1.052,0.198 1.908,0.723 1.908,0.723 m 25.773,12.486 h 6.97 V 8.543 L -35.769,-2.3 c 0,0 0.644,-0.459 1.119,-0.592 0.494,-0.138 1.314,-0.066 1.314,-0.066 v -2.431 h -8.547 l -0.066,2.497 h 1.381 c 0,0 0.285,0.065 0.394,0.198 0.105,0.124 0.132,0.394 0.132,0.394 l -0.526,2.103 h -2.564 l -0.592,2.102 h 2.564 l -1.644,4.075 -2.432,-7.426 c -0.135,-0.361 -0.116,-0.646 0.066,-0.986 0.076,-0.144 0.066,-0.131 0.263,-0.328 0.525,-0.263 1.446,-0.263 1.446,-0.263 l 0.065,-2.366 h -7.297 v 2.497 c 0,0 0.919,-0.2 1.446,0 0.379,0.144 0.854,0.592 0.854,0.592 l 3.683,9.266 c 0,0 -0.01,0.713 -0.263,1.051 -0.355,0.473 -1.447,0.46 -1.447,0.46 z"
       style="fill:#ffffff;fill-opacity:1;fill-rule:nonzero;stroke:none"
       transform="matrix(0.35277776,0,0,-0.35277776,122.64302,146.74327)"
       clip-path="url(#clipPath10)" />
    <path
       id="path11"
       d="m 0,0 c -2.235,0 -4.214,1.118 -4.214,2.838 0,1.806 1.893,3.096 4.128,3.096 1.032,0 2.408,-0.688 3.182,-1.205 V 5.762 H 4.558 V 2.236 H 3.01 v 0.602 c 0,0.687 -0.861,1.634 -2.064,1.634 -1.204,0 -2.322,-0.602 -2.322,-1.204 0,-0.602 0.774,-1.29 1.979,-1.29 2.149,0 4.384,-1.204 4.384,-3.01 0,-1.806 -1.891,-2.924 -4.041,-2.924 -1.032,0 -2.494,0.602 -3.181,1.118 v -0.946 h -1.204 -0.258 -4.73 v 1.548 h 0.774 c 0,0 0.181,0.013 0.257,0.086 0.078,0.073 0.086,0.258 0.086,0.258 l -0.343,1.204 h -1.548 l -0.344,1.29 h 1.548 l -0.946,2.322 -1.462,-4.386 c -0.08,-0.184 -0.13,-0.363 0,-0.516 0.078,-0.092 0.086,-0.086 0.258,-0.172 0.171,-0.258 0.86,-0.086 0.86,-0.086 v -1.548 h -4.3 l -0.086,1.548 c 0,0 0.548,-0.121 0.86,0 0.225,0.088 0.516,0.344 0.516,0.344 l 2.15,5.417 c 0,0 0.035,0.399 -0.086,0.603 -0.184,0.31 -0.86,0.344 -0.86,0.344 v 1.29 h 4.041 v -1.29 l 2.237,-6.364 c 0,0 0.393,-0.286 0.687,-0.344 0.128,-0.025 0.294,-0.026 0.431,-0.02 v 1.912 h 1.462 v -0.602 c 0,-0.602 0.859,-1.634 2.149,-1.634 1.204,0 2.235,0.602 2.235,1.118 C 2.149,-0.86 1.204,0 0,0 m 38.353,5.762 h 4.042 v -1.29 l 2.15,-6.364 c 0,0 0.448,-0.29 0.773,-0.344 0.158,-0.026 0.37,-0.021 0.516,-0.013 v 1.905 h 1.462 v -0.602 c 0,-0.602 0.946,-1.634 2.064,-1.634 1.204,0 2.236,0.602 2.236,1.118 0,0.602 -0.86,1.462 -2.064,1.462 -2.236,0 -4.128,1.118 -4.128,2.838 0,1.806 1.892,3.096 4.042,3.096 0.946,0 2.408,-0.688 3.096,-1.205 v 1.033 h 1.462 V 2.236 h -1.462 v 0.602 c 0,0.687 -0.946,1.634 -2.15,1.634 -1.204,0 -2.15,-0.602 -2.15,-1.204 0,-0.602 0.689,-1.29 1.892,-1.29 2.15,0 4.3,-1.204 4.3,-3.01 0,-1.806 -1.806,-2.924 -4.042,-2.924 -0.946,0 -2.322,0.602 -3.096,1.118 v -0.946 h -1.289 -0.173 -4.901 l -0.086,1.548 h 0.86 c 0,0 0.184,0.01 0.258,0.086 0.074,0.076 0.086,0.258 0.086,0.258 l -0.344,1.204 h -1.462 l -0.344,1.29 h 1.547 l -0.945,2.322 -1.548,-4.386 c 0.019,-0.203 -0.026,-0.346 0.086,-0.516 0.052,-0.079 0,-0.086 0.172,-0.172 0.258,-0.258 0.86,-0.086 0.86,-0.086 v -1.548 h -3.87 -0.43 -4.385 v 0.172 h -2.065 l -2.235,4.73 V 1.72 c 0.401,-0.043 0.655,-0.06 1.032,0.086 0.252,0.097 0.437,0.13 0.602,0.344 0.144,0.187 0.218,0.699 0.246,0.819 -0.025,0.327 -0.111,1.073 -0.418,1.245 -0.271,0.15 -0.774,0.172 -0.774,0.172 0,0 -0.602,0 -0.86,-0.258 C 26.572,3.784 26.572,2.924 26.572,2.924 v -4.472 l 0.172,-0.344 0.172,-0.172 c 0.258,-0.086 0.86,-0.086 0.86,-0.086 v -1.634 h -4.644 v 1.634 c 0,0 0.431,0 0.774,0.086 0.172,0.086 0.266,0.044 0.344,0.172 0.069,0.115 0.072,0.231 0,0.344 l 0.086,4.472 c 0,0 0,0.86 -0.43,1.29 C 23.648,4.386 23.132,4.472 23.132,4.472 22.803,4.446 22.461,4.351 22.272,4.128 21.962,3.761 22.015,2.924 22.015,2.924 v -3.526 c 0,-1.892 -1.548,-3.44 -3.527,-3.44 -1.977,0 -3.697,1.548 -3.697,3.44 l 0.086,3.526 c 0,0 0,0.86 -0.258,1.204 -0.258,0.258 -0.86,0.344 -0.86,0.344 v 1.204 h 4.643 V 4.472 c 0,0 -0.592,-0.101 -0.859,-0.344 C 17.182,3.799 17.198,2.924 17.198,2.924 v -3.612 c 0,-0.86 0.775,-1.548 1.635,-1.548 0.859,0 1.634,0.688 1.634,1.548 v 3.612 c 0,0 0,0.86 -0.259,1.204 -0.344,0.258 -0.859,0.344 -0.859,0.344 v 1.204 h 3.783 l 4.988,0.086 c 1.72,0 2.924,-1.033 2.924,-2.408 0,-1.118 -0.689,-1.892 -1.721,-2.322 0,0 0.259,-0.172 0.345,-0.258 0.773,-0.774 0.516,-1.892 1.376,-2.666 0,0 0.172,-0.086 0.43,-0.172 0.196,-0.049 0.392,-0.07 0.525,-0.079 0.067,0.017 0.125,0.041 0.162,0.079 0.172,0 0.244,0.06 0.345,0.172 0.078,0.087 0.085,0.374 0.085,0.374 l 10e-4,4.442 c 0,0 0,0.86 -0.345,1.29 -0.258,0.172 -0.859,0.258 -0.859,0.258 l -0.086,1.204 4.901,0.086 v -1.29 c 0,0 -0.601,-0.086 -0.86,-0.258 -0.43,-0.43 -0.344,-1.29 -0.344,-1.29 v -4.472 c -0.057,-0.121 -0.055,-0.222 0,-0.344 0.062,-0.137 0.258,-0.172 0.344,-0.172 0.345,-0.172 0.86,-0.086 0.86,-0.086 v -0.137 c 0.148,-0.005 0.307,0.005 0.43,0.051 0.226,0.086 0.516,0.344 0.516,0.344 l 2.236,5.417 c 0,0 -0.084,0.415 -0.258,0.603 -0.225,0.241 -0.774,0.344 -0.774,0.344 z M -18.574,0.344 h -3.698 v -1.892 c 0,0 0,-0.344 0.085,-0.43 l 0.259,-0.258 h 2.064 c 0,0 0.28,0.071 0.429,0.172 0.142,0.096 0.086,0.43 0.086,0.43 v 0.688 h 1.807 v -2.838 h -7.826 v 1.548 c 0,0 0.345,0 0.516,0.086 0.086,0 0.177,0.082 0.258,0.172 0.113,0.125 0.122,0.315 0,0.43 v 4.472 c 0,0 0.086,0.86 -0.344,1.204 -0.258,0.258 -0.774,0.344 -0.774,0.344 v 1.29 h 8.17 V 3.01 h -1.807 v 0.601 c 0,0 0.078,0.395 -0.086,0.517 -0.144,0.107 -0.429,0.172 -0.429,0.172 h -2.064 c 0,0 -0.178,-0.14 -0.259,-0.258 -0.094,-0.143 -0.085,-0.431 -0.085,-0.431 V 1.72 h 3.44 z M 5.159,5.762 h 8.514 V 2.408 h -1.806 v 0.516 c 0,0 0,0.86 -0.429,1.204 -0.259,0.258 -0.947,0.344 -0.947,0.344 l 0.086,-6.02 c 0,-0.139 0.019,-0.223 0.086,-0.344 0.07,-0.124 0.086,-0.172 0.258,-0.258 0.258,-0.086 0.86,-0.086 0.86,-0.086 L 11.695,-3.784 H 6.88 v 1.634 c 0,0 0.601,-0.086 0.859,0 0.172,0.086 0.298,0.097 0.344,0.258 0.037,0.129 0.039,0.216 0,0.344 V 4.386 C 8.083,4.386 7.481,4.3 7.224,4.042 6.88,3.784 6.88,2.838 6.88,2.838 V 2.408 H 5.159 Z m -40.588,-9.546 v 1.548 c 0,0 0.344,0 0.43,0.086 0.086,0 0.12,0.093 0.172,0.172 0.094,0.143 0.087,0.259 0.086,0.43 v 4.472 c 0,0 0,0.86 -0.258,1.204 -0.258,0.258 -0.946,0.344 -0.946,0.344 v 1.29 h 7.137 c 1.806,0 3.354,-2.151 3.354,-4.73 0,-2.666 -1.548,-4.816 -3.354,-4.816 z m 5.331,7.998 h -1.977 c 0,0 -0.172,-0.172 -0.172,-0.258 -0.086,-0.086 -0.086,-0.345 -0.086,-0.345 v -5.245 c 0,0 0,-0.258 0.086,-0.344 0,-0.086 0.172,-0.258 0.172,-0.258 h 1.977 c 1.204,0 2.151,1.462 2.151,3.182 0,1.892 -0.947,3.268 -2.151,3.268"
       style="fill:#ffffff;fill-opacity:1;fill-rule:nonzero;stroke:none"
       transform="matrix(0.35277776,0,0,-0.35277776,105.89052,153.19664)"
       clip-path="url(#clipPath12)" />
    <path
       id="path13"
       d="m 0,0 -0.008,-8.354 -8.584,0.007 17.381,-17.411 c 2.63,-2.749 5.718,-5.842 5.713,-11.106 l 2.861,-0.003 c 0.005,5.264 -2.967,8.815 -5.597,11.564 l -4.689,4.697 3.434,-0.003 4.688,-4.697 c 2.63,-2.75 4.458,-6.298 4.453,-11.563 l 2.519,-0.003 c 0.005,5.265 -2.395,10.303 -5.025,13.052 l -4.688,4.696 0.003,3.548 6.861,-6.758 c 2.631,-2.75 5.257,-9.275 5.252,-14.54 l 2.404,-0.002 c 0.004,5.265 2.754,8.352 5.39,11.096 l 17.413,17.379 -8.584,0.008 0.008,8.354 -14.32,-14.406 0.021,24.033 -6.301,-5.859 -6.174,5.756 -0.023,-23.918 z m 26.073,-29.365 c 0.995,1.544 2.189,2.868 3.32,4.046 l 4.697,4.687 -3.435,0.004 -4.697,-4.688 c -0.371,-0.387 -0.726,-0.789 -1.062,-1.21 0.602,-1.193 1.177,-2.839 1.177,-2.839 m -2.517,5.081 5.155,5.145 0.004,3.548 -6.581,-6.466 c 0.85,-0.853 1.422,-2.227 1.422,-2.227 m 17.396,13.989 -2.491,-2.544 3.548,-0.004 2.348,2.545 z m -5.012,-5.002 -2.635,-2.687 3.549,-0.003 2.492,2.686 z m -4.619,2.364 2.549,2.487 -0.003,-3.548 -2.549,-2.343 z m 5.012,5.002 2.692,2.63 -0.003,-3.548 -2.692,-2.486 z m -16.919,-4.68 -0.007,-6.51 -2.506,2.511 0.006,6.409 z m 4.974,-4.107 0.006,6.712 -2.411,-2.507 -0.005,-6.611 z M 19.427,1.465 19.424,-2.096 16.917,0.416 16.92,3.875 Z m -0.007,-6.878 -0.003,-3.763 -2.507,2.511 0.004,3.662 z m 4.976,-1.36 0.004,3.56 -2.41,-2.506 -0.004,-3.46 z m 0.007,7.081 0.003,3.762 -2.41,-2.506 -0.003,-3.662 z m -24.17,-10.565 2.488,-2.549 -3.549,0.003 -2.344,2.549 z m 5.003,-5.012 2.631,-2.692 -3.549,0.004 -2.487,2.691 z m 4.624,2.356 -2.545,2.492 -0.002,-3.548 2.543,-2.348 z M 4.857,-7.901 2.17,-5.267 2.166,-8.814 4.854,-11.306 Z"
       style="fill:#ffda0f;fill-opacity:1;fill-rule:evenodd;stroke:none"
       transform="matrix(0.35277776,0,0,-0.35277776,73.008138,143.13556)"
       clip-path="url(#clipPath14)" />
  </g>
</svg>
