<?xml version="1.0" encoding="UTF-8" standalone="no"?>
<!-- Created with Inkscape (http://www.inkscape.org/) -->

<svg
   width="63.926506mm"
   height="63.926861mm"
   viewBox="0 0 63.926506 63.926861"
   version="1.1"
   id="svg1"
   xmlns="http://www.w3.org/2000/svg"
   xmlns:svg="http://www.w3.org/2000/svg">
  <defs
     id="defs1">
    <clipPath
       clipPathUnits="userSpaceOnUse"
       id="clipPath22">
      <path
         d="M 0,841.89 H 595.276 V 0 H 0 Z"
         id="path22" />
    </clipPath>
    <clipPath
       clipPathUnits="userSpaceOnUse"
       id="clipPath24">
      <path
         d="M 0,841.89 H 595.276 V 0 H 0 Z"
         transform="translate(-111.4824,-209.13961)"
         id="path24" />
    </clipPath>
    <clipPath
       clipPathUnits="userSpaceOnUse"
       id="clipPath26">
      <path
         d="M 0,841.89 H 595.276 V 0 H 0 Z"
         transform="translate(-169.77441,-126.59181)"
         id="path26" />
    </clipPath>
    <clipPath
       clipPathUnits="userSpaceOnUse"
       id="clipPath28">
      <path
         d="M 0,841.89 H 595.276 V 0 H 0 Z"
         transform="translate(-135.76461,-105.502)"
         id="path28" />
    </clipPath>
  </defs>
  <g
     id="layer1"
     transform="translate(-57.358329,-100.90625)">
    <path
       id="path21"
       d="M 55.818,253.729 H 237.027 V 72.519 H 55.818 Z"
       style="fill:#00613f;fill-opacity:1;fill-rule:evenodd;stroke:none"
       transform="matrix(0.35277776,0,0,-0.35277776,37.66698,190.4162)"
       clip-path="url(#clipPath22)" />
    <path
       id="path23"
       d="m 0,0 -0.014,-14.175 -14.564,0.014 29.489,-29.54 c 4.462,-4.664 9.7,-9.911 9.693,-18.843 l 4.854,-0.005 c 0.009,8.932 -5.035,14.955 -9.497,19.619 l -7.954,7.969 5.825,-0.006 7.955,-7.968 c 4.462,-4.664 7.563,-10.686 7.555,-19.618 l 4.272,-0.004 c 0.008,8.932 -4.061,17.479 -8.524,22.143 l -7.954,7.969 0.006,6.018 11.64,-11.466 c 4.462,-4.665 8.918,-15.736 8.909,-24.668 l 4.079,-0.003 c 0.008,8.931 4.673,14.169 9.144,18.826 l 29.545,29.485 -14.564,0.014 0.013,14.174 -24.297,-24.442 0.038,40.774 -10.69,-9.941 -10.477,9.767 -0.038,-40.58 z m 44.235,-49.821 c 1.689,2.62 3.713,4.867 5.631,6.864 l 7.97,7.953 -5.826,0.006 -7.97,-7.954 c -0.629,-0.655 -1.232,-1.339 -1.804,-2.053 1.024,-2.023 1.999,-4.816 1.999,-4.816 m -4.271,8.621 8.747,8.728 0.006,6.02 -11.165,-10.97 c 1.443,-1.448 2.412,-3.778 2.412,-3.778 m 29.515,23.733 -4.228,-4.316 6.02,-0.006 3.985,4.316 z m -8.504,-8.487 -4.471,-4.559 6.02,-0.006 4.228,4.56 z m -7.836,4.013 4.324,4.218 -0.006,-6.019 -4.324,-3.976 z m 8.504,8.486 4.567,4.461 -0.006,-6.019 -4.567,-4.218 z m -28.706,-7.941 -0.01,-11.045 -4.253,4.26 0.01,10.873 z m 8.438,-6.968 0.011,11.387 -4.089,-4.252 -0.011,-11.216 z m -8.416,30.849 -0.006,-6.041 -4.252,4.261 0.005,5.869 z m -0.011,-11.67 -0.006,-6.383 -4.253,4.259 0.006,6.213 z m 8.443,-2.307 0.005,6.041 -4.088,-4.252 -0.006,-5.869 z m 0.011,12.013 0.006,6.384 -4.09,-4.252 -0.005,-6.213 z m -41.006,-17.923 4.219,-4.325 -6.019,0.006 -3.978,4.324 z m 8.488,-8.503 4.462,-4.568 -6.02,0.006 -4.22,4.568 z m 7.844,3.997 -4.317,4.227 -0.006,-6.019 4.318,-3.985 z m -8.488,8.503 -4.559,4.469 -0.006,-6.019 4.559,-4.227 z"
       style="fill:#ffda0f;fill-opacity:1;fill-rule:evenodd;stroke:none"
       transform="matrix(0.35277776,0,0,-0.35277776,76.99549,116.6364)"
       clip-path="url(#clipPath24)" />
    <path
       id="path25"
       d="m 0,0 c 0,-3.864 -3.108,-6.971 -6.975,-6.971 -3.866,0 -6.973,3.107 -6.973,6.971 v 6.819 c 0,0 0.075,1.819 -0.607,2.5 -0.531,0.379 -1.668,0.531 -1.668,0.531 l -0.076,2.576 H -7.05 V 9.85 c 0,0 -1.16,-0.197 -1.668,-0.682 C -9.407,8.509 -9.4,6.819 -9.4,6.819 l 0.076,-7.122 c 0,-1.743 1.44,-3.106 3.183,-3.106 1.744,0 3.184,1.363 3.184,3.106 v 7.122 c 0,0 0.076,1.819 -0.606,2.5 -0.531,0.379 -1.744,0.531 -1.744,0.531 l 0.076,2.576 h 7.429 1.82 8.262 c 3.077,-0.037 5.686,-2.295 5.686,-4.925 0,-1.97 -1.365,-3.713 -3.411,-4.546 0,0 0.454,-0.379 0.681,-0.53 1.517,-1.592 0.986,-3.713 2.73,-5.153 0.075,0 0.379,-0.302 0.758,-0.455 0.213,-0.07 0.44,-0.111 0.652,-0.134 0.422,0.154 0.939,0.589 0.939,0.589 l 4.322,10.759 c 0,0 -0.082,0.776 -0.379,1.137 -0.441,0.534 -1.668,0.605 -1.668,0.605 l 0.075,2.577 h 7.96 V 9.773 l 4.321,-12.501 c 0,0 0.745,-0.49 1.288,-0.606 0.247,-0.053 0.562,-0.058 0.834,-0.048 0,0.048 0.221,0.021 0.462,0.032 l 0.145,0.016 c 0.111,0.014 0.219,0.034 0.304,0.076 0.151,0.152 0.275,0.248 0.378,0.454 0.148,0.296 0.188,0.506 0.152,0.834 l -0.076,8.789 c 0,0 0.076,1.743 -0.606,2.424 -0.531,0.379 -1.744,0.607 -1.744,0.607 v 2.5 h 9.324 L 45.331,9.773 c 0,0 -1.145,-0.151 -1.668,-0.605 C 42.922,8.523 42.981,6.743 42.981,6.743 V -1.97 c 0,0 0.057,-0.543 0.228,-0.834 0.148,-0.252 0.53,-0.53 0.53,-0.53 h 3.943 c 0,0 0.589,0.059 0.833,0.304 0.279,0.278 0.227,0.984 0.227,0.984 v 1.288 h 3.487 V -6.213 H 37.675 37.068 27.744 l 0.076,2.879 h 1.517 c 0,0 0.327,0.075 0.454,0.228 0.103,0.122 0.151,0.378 0.151,0.378 l -0.605,2.5 h -2.881 l -0.758,2.425 h 2.956 L 26.759,6.895 24.03,-1.742 c -0.209,-0.358 -0.209,-0.704 0,-1.062 0.106,-0.179 0.075,-0.226 0.379,-0.379 0.53,-0.302 1.668,-0.151 1.668,-0.151 L 26.001,-6.213 H 20.239 17.738 14.63 l -4.548,9.471 v 1.213 c 0.744,-0.196 1.243,-0.173 1.971,0.075 0.528,0.181 0.872,0.316 1.213,0.758 0.378,0.488 0.415,0.899 0.455,1.515 0.064,0.989 0.078,1.893 -0.759,2.424 -0.508,0.324 -1.516,0.304 -1.516,0.304 0,0 -1.213,0.075 -1.743,-0.379 C 9.021,8.562 9.172,6.743 9.172,6.743 V -1.97 l 0.151,-0.758 c 0,0 0.304,-0.302 0.531,-0.455 0.531,-0.226 1.592,-0.151 1.592,-0.151 V -6.213 H 2.273 v 2.879 c 0,0 1.062,-0.075 1.593,0.151 0.227,0.153 0.4,0.216 0.53,0.455 0.142,0.261 0.148,0.47 0.076,0.758 l 0.076,8.789 c 0,0 0.076,1.743 -0.607,2.424 C 3.411,9.622 2.198,9.85 2.198,9.85 1.584,9.771 0.96,9.582 0.606,9.168 -0.008,8.447 0,6.819 0,6.819 Z m -21.908,12.426 c 3.108,0 5.685,-2.274 5.685,-4.925 0,-1.97 -1.44,-3.713 -3.411,-4.546 0,0 0.455,-0.379 0.607,-0.53 1.591,-1.592 1.061,-3.713 2.728,-5.153 0.076,0 0.38,-0.302 0.834,-0.455 0.607,-0.226 1.517,-0.151 1.517,-0.151 v -2.879 h -5.61 l -4.625,9.471 v 1.213 c 0.774,-0.203 1.297,-0.2 2.047,0.075 0.525,0.191 0.872,0.316 1.213,0.758 0.378,0.488 0.415,0.899 0.455,1.515 0.065,0.989 0.078,1.893 -0.758,2.424 -0.508,0.324 -1.516,0.304 -1.516,0.304 0,0 -1.213,0.075 -1.743,-0.379 -0.683,-0.606 -0.607,-2.425 -0.607,-2.425 V -1.97 l 0.228,-0.758 c 0,0 0.227,-0.302 0.455,-0.455 0.605,-0.226 1.667,-0.151 1.667,-0.151 v -2.879 h -9.324 l 0.076,2.879 c 0,0 1.061,-0.075 1.592,0.151 0.303,0.153 0.454,0.203 0.606,0.455 0.153,0.255 0.154,0.471 0.076,0.758 v 8.789 c 0,0 0.075,1.743 -0.606,2.424 -0.455,0.379 -1.744,0.607 -1.744,0.607 v 2.5 z m -43.513,0 h 9.249 V 9.85 c 0,0 -1.216,-0.178 -1.744,-0.682 -0.685,-0.653 -0.606,-2.349 -0.606,-2.349 v -7.047 c 0,0 -0.242,-3.529 -1.516,-5.227 -1.524,-2.03 -5.762,-3.03 -5.762,-3.03 v 2.272 c 0,0 1.404,0.566 1.972,1.288 0.576,0.736 0.758,2.274 0.758,2.274 l -0.076,9.47 c 0,0 0.151,1.819 -0.531,2.5 -0.531,0.379 -1.744,0.531 -1.744,0.531 z m -17.813,-14.396 4.092,9.925 c 0,0 -0.063,0.83 -0.379,1.213 -0.439,0.534 -1.667,0.605 -1.667,0.605 v 2.577 h 8.036 V 9.773 l 4.245,-12.501 c 0,0 0.799,-0.464 1.364,-0.606 0.548,-0.137 1.44,-0.151 1.44,-0.151 v -2.728 h -9.854 v 2.879 h 1.516 c 0,0 0.323,0.02 0.455,0.151 0.132,0.133 0.151,0.455 0.151,0.455 l -0.606,2.5 h -2.881 l -0.758,2.349 h 2.956 l -1.895,4.698 -2.729,-8.637 c -0.133,-0.266 -0.143,-0.469 -0.075,-0.758 0.066,-0.288 0.151,-0.454 0.455,-0.607 0.454,-0.378 1.667,-0.151 1.667,-0.151 v -2.954 h -11.825 c 0,0 -5.338,0.612 -7.354,2.954 -1.844,2.142 -2.256,4.16 -1.971,6.971 0.247,2.421 0.91,3.939 2.578,5.682 1.819,1.895 3.563,2.349 6.064,2.955 0.91,0.227 1.896,0.076 3.032,0.076 1.971,0 3.866,-0.227 3.866,-0.227 v -6.44 h -3.335 l 0.076,2.5 c 0,0.151 -0.076,0.303 -0.152,0.379 -0.151,0.076 -0.455,0.151 -0.455,0.151 0,0 -1.06,0.151 -1.743,0.151 -0.683,0 -1.744,-0.151 -1.744,-0.151 0,0 -0.909,-0.151 -1.44,-0.454 -0.531,-0.379 -0.677,-0.687 -0.986,-1.213 -0.712,-1.215 -0.606,-2.197 -0.606,-3.561 0,-1.364 -0.011,-2.338 0.606,-3.636 0.303,-0.637 0.531,-1.061 0.986,-1.516 0.607,-0.606 0.875,-0.877 1.592,-1.137 0.917,-0.331 1.516,-0.075 2.501,-0.075 0.683,0 1.744,0 2.578,0.075 1.213,0.228 2.199,0.834 2.199,0.834 m 29.715,14.396 h 8.036 V 9.85 l 4.245,-12.501 c 0,0 0.741,-0.53 1.288,-0.683 0.57,-0.159 1.516,-0.075 1.516,-0.075 v -2.804 h -9.854 l -0.076,2.879 h 1.592 c 0,0 0.328,0.075 0.455,0.228 0.119,0.143 0.151,0.455 0.151,0.455 l -0.606,2.423 h -2.957 l -0.682,2.425 h 2.957 l -1.896,4.698 -2.804,-8.562 c -0.157,-0.416 -0.134,-0.744 0.075,-1.137 0.09,-0.167 0.076,-0.151 0.304,-0.379 0.606,-0.302 1.668,-0.302 1.668,-0.302 l 0.075,-2.728 h -8.414 v 2.879 c 0,0 1.059,-0.23 1.668,0 0.436,0.166 0.985,0.683 0.985,0.683 l 4.245,10.682 c 0,0 -0.011,0.823 -0.304,1.212 -0.409,0.546 -1.667,0.53 -1.667,0.53 z"
       style="fill:#ffffff;fill-opacity:1;fill-rule:nonzero;stroke:none"
       transform="matrix(0.35277776,0,0,-0.35277776,97.55962,145.75742)"
       clip-path="url(#clipPath26)" />
    <path
       id="path27"
       d="m 0,0 c -2.577,0 -4.858,1.288 -4.858,3.271 0,2.083 2.181,3.57 4.759,3.57 1.19,0 2.776,-0.794 3.668,-1.389 V 6.643 H 5.255 V 2.577 H 3.47 v 0.694 c 0,0.793 -0.991,1.884 -2.379,1.884 -1.388,0 -2.677,-0.694 -2.677,-1.388 0,-0.694 0.892,-1.487 2.28,-1.487 2.479,0 5.057,-1.388 5.057,-3.47 0,-2.082 -2.182,-3.372 -4.66,-3.372 -1.19,0 -2.875,0.695 -3.668,1.29 v -1.091 h -1.389 -0.297 -5.453 v 1.785 h 0.893 c 0,0 0.208,0.015 0.297,0.099 0.088,0.084 0.099,0.297 0.099,0.297 l -0.396,1.388 h -1.785 l -0.397,1.487 h 1.785 l -1.091,2.677 -1.685,-5.056 c -0.094,-0.212 -0.15,-0.418 0,-0.595 0.09,-0.106 0.099,-0.099 0.297,-0.198 0.198,-0.297 0.992,-0.099 0.992,-0.099 v -1.785 h -4.958 l -0.099,1.785 c 0,0 0.631,-0.141 0.992,0 0.259,0.101 0.594,0.396 0.594,0.396 l 2.479,6.246 c 0,0 0.04,0.459 -0.099,0.695 -0.213,0.358 -0.991,0.396 -0.991,0.396 V 6.643 H -8.13 V 5.155 l 2.578,-7.337 c 0,0 0.454,-0.329 0.793,-0.396 0.148,-0.029 0.338,-0.03 0.496,-0.024 v 2.205 h 1.686 v -0.694 c 0,-0.694 0.991,-1.884 2.478,-1.884 1.388,0 2.578,0.694 2.578,1.289 C 2.479,-0.992 1.388,0 0,0 m 44.219,6.643 h 4.659 V 5.155 l 2.478,-7.337 c 0,0 0.518,-0.334 0.893,-0.396 0.181,-0.03 0.426,-0.025 0.595,-0.015 v 2.196 h 1.685 v -0.694 c 0,-0.694 1.091,-1.884 2.38,-1.884 1.388,0 2.577,0.694 2.577,1.289 0,0.694 -0.991,1.686 -2.379,1.686 -2.578,0 -4.758,1.288 -4.758,3.271 0,2.083 2.18,3.57 4.659,3.57 1.091,0 2.776,-0.794 3.569,-1.389 v 1.191 h 1.686 V 2.577 h -1.686 v 0.694 c 0,0.793 -1.091,1.884 -2.478,1.884 -1.388,0 -2.479,-0.694 -2.479,-1.388 0,-0.694 0.793,-1.487 2.182,-1.487 2.478,0 4.957,-1.388 4.957,-3.47 0,-2.082 -2.082,-3.372 -4.66,-3.372 -1.091,0 -2.677,0.695 -3.57,1.29 v -1.091 h -1.487 -0.198 -5.652 l -0.098,1.785 h 0.991 c 0,0 0.212,0.012 0.298,0.099 0.085,0.087 0.098,0.297 0.098,0.297 l -0.396,1.388 h -1.686 l -0.396,1.487 h 1.785 L 46.697,3.37 44.912,-1.686 c 0.022,-0.234 -0.03,-0.399 0.1,-0.595 0.06,-0.091 0,-0.099 0.198,-0.198 0.297,-0.297 0.991,-0.099 0.991,-0.099 V -4.363 H 41.74 41.244 36.188 v 0.198 l -2.379,0.001 -2.579,5.452 v 0.694 c 0.463,-0.049 0.756,-0.069 1.19,0.1 0.291,0.112 0.504,0.149 0.694,0.397 0.166,0.215 0.252,0.805 0.283,0.944 -0.028,0.377 -0.126,1.237 -0.481,1.434 -0.312,0.174 -0.893,0.199 -0.893,0.199 0,0 -0.693,0 -0.991,-0.297 C 30.636,4.362 30.636,3.37 30.636,3.37 v -5.155 l 0.198,-0.397 0.198,-0.198 c 0.298,-0.099 0.991,-0.099 0.991,-0.099 V -4.363 H 26.67 v 1.884 c 0,0 0.496,0 0.893,0.099 0.198,0.099 0.306,0.051 0.396,0.198 0.08,0.132 0.083,0.266 0,0.397 l 0.099,5.155 c 0,0 0,0.992 -0.495,1.487 C 27.265,5.056 26.67,5.155 26.67,5.155 26.29,5.126 25.896,5.016 25.679,4.759 25.321,4.336 25.381,3.37 25.381,3.37 v -4.064 c 0,-2.182 -1.784,-3.966 -4.065,-3.966 -2.28,0 -4.263,1.784 -4.263,3.966 l 0.099,4.064 c 0,0 0,0.992 -0.298,1.389 -0.296,0.297 -0.991,0.396 -0.991,0.396 v 1.388 h 5.354 V 5.155 c 0,0 -0.683,-0.116 -0.991,-0.396 C 19.81,4.38 19.829,3.37 19.829,3.37 v -4.164 c 0,-0.991 0.893,-1.784 1.884,-1.784 0.991,0 1.884,0.793 1.884,1.784 V 3.37 c 0,0 0,0.992 -0.298,1.389 -0.397,0.297 -0.991,0.396 -0.991,0.396 v 1.388 h 4.362 l 5.75,0.1 c 1.983,0 3.371,-1.191 3.371,-2.777 0,-1.289 -0.793,-2.181 -1.982,-2.677 0,0 0.296,-0.198 0.396,-0.297 0.892,-0.892 0.595,-2.181 1.586,-3.074 0,0 0.198,-0.099 0.496,-0.198 0.227,-0.057 0.452,-0.081 0.606,-0.092 0.077,0.02 0.144,0.049 0.187,0.092 0.198,0 0.281,0.069 0.397,0.198 0.089,0.101 0.098,0.432 0.098,0.431 l 10e-4,5.121 c 0,0 0,0.992 -0.397,1.487 -0.297,0.199 -0.991,0.298 -0.991,0.298 l -0.099,1.388 5.651,0.1 V 5.155 c 0,0 -0.694,-0.099 -0.992,-0.298 C 40.253,4.362 40.352,3.37 40.352,3.37 v -5.155 c -0.066,-0.14 -0.063,-0.255 0,-0.397 0.071,-0.158 0.297,-0.198 0.396,-0.198 0.398,-0.198 0.992,-0.099 0.992,-0.099 v -0.159 c 0.17,-0.006 0.354,0.006 0.495,0.06 0.261,0.099 0.595,0.396 0.595,0.396 l 2.578,6.246 c 0,0 -0.096,0.479 -0.298,0.695 -0.258,0.278 -0.891,0.396 -0.891,0.396 z M -21.415,0.396 h -4.263 v -2.181 c 0,0 0,-0.397 0.099,-0.496 l 0.298,-0.297 h 2.379 c 0,0 0.323,0.082 0.496,0.198 0.163,0.11 0.098,0.496 0.098,0.496 v 0.793 h 2.082 v -3.272 h -9.021 v 1.785 c 0,0 0.396,0 0.595,0.099 0.098,0 0.204,0.094 0.298,0.198 0.128,0.144 0.139,0.363 0,0.496 V 3.37 c 0,0 0.098,0.992 -0.398,1.389 -0.297,0.297 -0.892,0.396 -0.892,0.396 v 1.488 h 9.418 V 3.47 h -2.082 v 0.694 c 0,0 0.09,0.454 -0.098,0.595 -0.167,0.124 -0.496,0.198 -0.496,0.198 h -2.379 c 0,0 -0.206,-0.161 -0.298,-0.298 -0.109,-0.163 -0.099,-0.495 -0.099,-0.495 V 1.982 h 3.966 z M 5.949,6.643 h 9.815 V 2.775 H 13.683 V 3.37 c 0,0 0,0.992 -0.496,1.389 -0.298,0.297 -1.091,0.396 -1.091,0.396 l 0.099,-6.94 c -10e-4,-0.159 0.021,-0.258 0.099,-0.397 0.081,-0.142 0.1,-0.198 0.298,-0.297 0.297,-0.099 0.991,-0.099 0.991,-0.099 l -0.1,-1.785 H 7.932 v 1.884 c 0,0 0.694,-0.099 0.991,0 0.198,0.099 0.344,0.112 0.396,0.297 0.043,0.149 0.045,0.248 0,0.397 v 6.841 c 0,0 -0.693,-0.099 -0.991,-0.397 C 7.932,4.362 7.932,3.271 7.932,3.271 V 2.775 H 5.949 Z M -40.847,-4.363 v 1.785 c 0,0 0.397,0 0.495,0.099 0.1,0 0.139,0.107 0.199,0.198 0.108,0.165 0.099,0.299 0.099,0.496 V 3.37 c 0,0 0,0.992 -0.298,1.389 -0.297,0.297 -1.09,0.396 -1.09,0.396 v 1.488 h 8.229 c 2.082,0 3.866,-2.479 3.866,-5.454 0,-3.073 -1.784,-5.552 -3.866,-5.552 z m 6.147,9.22 h -2.28 c 0,0 -0.199,-0.198 -0.199,-0.296 -0.099,-0.1 -0.099,-0.397 -0.099,-0.397 v -6.048 c 0,0 0,-0.298 0.099,-0.397 0,-0.099 0.199,-0.297 0.199,-0.297 h 2.28 c 1.387,0 2.478,1.685 2.478,3.668 0,2.181 -1.091,3.767 -2.478,3.767"
       style="fill:#ffffff;fill-opacity:1;fill-rule:nonzero;stroke:none"
       transform="matrix(0.35277776,0,0,-0.35277776,85.56171,153.19744)"
       clip-path="url(#clipPath28)" />
  </g>
</svg>
