<?xml version="1.0" encoding="UTF-8" standalone="no"?>
<!-- Created with Inkscape (http://www.inkscape.org/) -->

<svg
   version="1.1"
   id="svg1"
   width="1285.0347"
   height="1285.0347"
   viewBox="0 0 1285.0347 1285.0347"
   xmlns="http://www.w3.org/2000/svg"
   xmlns:svg="http://www.w3.org/2000/svg">
  <defs
     id="defs1">
    <clipPath
       clipPathUnits="userSpaceOnUse"
       id="clipPath2">
      <path
         d="M 1.131,0 H 963.776 V 960.423 H 1.131 Z"
         transform="translate(-404.79931,-217.06841)"
         id="path2" />
    </clipPath>
    <clipPath
       clipPathUnits="userSpaceOnUse"
       id="clipPath4">
      <path
         d="M 1.131,0 H 963.776 V 960.423 H 1.131 Z"
         transform="translate(-434.38281,-191.92093)"
         id="path4" />
    </clipPath>
    <clipPath
       clipPathUnits="userSpaceOnUse"
       id="clipPath6">
      <path
         d="M 1.131,0 H 963.776 V 960.423 H 1.131 Z"
         transform="translate(-455.84911,-193.3418)"
         id="path6" />
    </clipPath>
    <clipPath
       clipPathUnits="userSpaceOnUse"
       id="clipPath8">
      <path
         d="M 1.131,0 H 963.776 V 960.423 H 1.131 Z"
         transform="translate(-477.89261,-206.57518)"
         id="path8" />
    </clipPath>
    <clipPath
       clipPathUnits="userSpaceOnUse"
       id="clipPath10">
      <path
         d="M 1.131,0 H 963.776 V 960.423 H 1.131 Z"
         transform="translate(-491.74901,-191.92093)"
         id="path10" />
    </clipPath>
    <clipPath
       clipPathUnits="userSpaceOnUse"
       id="clipPath12">
      <path
         d="M 1.131,0 H 963.776 V 960.423 H 1.131 Z"
         transform="translate(-529.91212,-212.33113)"
         id="path12" />
    </clipPath>
    <clipPath
       clipPathUnits="userSpaceOnUse"
       id="clipPath14">
      <path
         d="M 1.131,0 H 963.776 V 960.423 H 1.131 Z"
         transform="translate(-523.85161,-182.65618)"
         id="path14" />
    </clipPath>
    <clipPath
       clipPathUnits="userSpaceOnUse"
       id="clipPath16">
      <path
         d="M 1.131,0 H 963.776 V 960.423 H 1.131 Z"
         transform="translate(-564.29002,-205.43751)"
         id="path16" />
    </clipPath>
    <clipPath
       clipPathUnits="userSpaceOnUse"
       id="clipPath18">
      <path
         d="M 1.131,0 H 963.776 V 960.423 H 1.131 Z"
         transform="translate(-564.68461,-182.65618)"
         id="path18" />
    </clipPath>
    <clipPath
       clipPathUnits="userSpaceOnUse"
       id="clipPath20">
      <path
         d="M 1.131,0 H 963.776 V 960.423 H 1.131 Z"
         transform="translate(-601.86521,-399.07421)"
         id="path20" />
    </clipPath>
    <clipPath
       clipPathUnits="userSpaceOnUse"
       id="clipPath22">
      <path
         d="M 1.131,0 H 963.776 V 960.423 H 1.131 Z"
         transform="translate(-584.03221,-391.90821)"
         id="path22" />
    </clipPath>
    <clipPath
       clipPathUnits="userSpaceOnUse"
       id="clipPath24">
      <path
         d="M 1.131,0 H 963.776 V 960.423 H 1.131 Z"
         transform="translate(0,2.5000001e-5)"
         id="path24" />
    </clipPath>
    <clipPath
       clipPathUnits="userSpaceOnUse"
       id="clipPath26">
      <path
         d="M 1.131,0 H 963.776 V 960.423 H 1.131 Z"
         transform="translate(-450.21781,-613.44292)"
         id="path26" />
    </clipPath>
    <clipPath
       clipPathUnits="userSpaceOnUse"
       id="clipPath28">
      <path
         d="M 1.131,0 H 963.776 V 960.423 H 1.131 Z"
         transform="translate(-443.41551,-406.69341)"
         id="path28" />
    </clipPath>
    <clipPath
       clipPathUnits="userSpaceOnUse"
       id="clipPath30">
      <path
         d="M 1.131,0 H 963.776 V 960.423 H 1.131 Z"
         transform="translate(-494.04981,-456.56931)"
         id="path30" />
    </clipPath>
    <clipPath
       clipPathUnits="userSpaceOnUse"
       id="clipPath32">
      <path
         d="M 1.131,0 H 963.776 V 960.423 H 1.131 Z"
         transform="translate(-506.11042,-456.56931)"
         id="path32" />
    </clipPath>
    <clipPath
       clipPathUnits="userSpaceOnUse"
       id="clipPath34">
      <path
         d="M 1.131,0 H 963.776 V 960.423 H 1.131 Z"
         transform="translate(-469.40971,-628.10551)"
         id="path34" />
    </clipPath>
    <clipPath
       clipPathUnits="userSpaceOnUse"
       id="clipPath36">
      <path
         d="M 1.131,0 H 963.776 V 960.423 H 1.131 Z"
         transform="translate(-537.20611,-424.03711)"
         id="path36" />
    </clipPath>
    <clipPath
       clipPathUnits="userSpaceOnUse"
       id="clipPath38">
      <path
         d="M 1.131,0 H 963.776 V 960.423 H 1.131 Z"
         transform="translate(-480.33011,-391.91701)"
         id="path38" />
    </clipPath>
    <clipPath
       clipPathUnits="userSpaceOnUse"
       id="clipPath40">
      <path
         d="M 1.131,0 H 963.776 V 960.423 H 1.131 Z"
         transform="translate(-465.10551,-559.70562)"
         id="path40" />
    </clipPath>
    <clipPath
       clipPathUnits="userSpaceOnUse"
       id="clipPath42">
      <path
         d="M 1.131,0 H 963.776 V 960.423 H 1.131 Z"
         transform="translate(-318.49321,-301.15821)"
         id="path42" />
    </clipPath>
    <clipPath
       clipPathUnits="userSpaceOnUse"
       id="clipPath44">
      <path
         d="M 1.131,0 H 963.776 V 960.423 H 1.131 Z"
         transform="translate(-392.81841,-288.78521)"
         id="path44" />
    </clipPath>
    <clipPath
       clipPathUnits="userSpaceOnUse"
       id="clipPath46">
      <path
         d="M 1.131,0 H 963.776 V 960.423 H 1.131 Z"
         transform="translate(-454.77491,-345.23831)"
         id="path46" />
    </clipPath>
    <clipPath
       clipPathUnits="userSpaceOnUse"
       id="clipPath48">
      <path
         d="M 1.131,0 H 963.776 V 960.423 H 1.131 Z"
         transform="translate(-648.32132,-297.02831)"
         id="path48" />
    </clipPath>
    <clipPath
       clipPathUnits="userSpaceOnUse"
       id="clipPath50">
      <path
         d="M 1.131,0 H 963.776 V 960.423 H 1.131 Z"
         transform="translate(-715.67192,-286.1904)"
         id="path50" />
    </clipPath>
    <clipPath
       clipPathUnits="userSpaceOnUse"
       id="clipPath52">
      <path
         d="M 1.131,0 H 963.776 V 960.423 H 1.131 Z"
         transform="translate(-507.11621,-288.78521)"
         id="path52" />
    </clipPath>
    <clipPath
       clipPathUnits="userSpaceOnUse"
       id="clipPath54">
      <path
         d="M 1.131,0 H 963.776 V 960.423 H 1.131 Z"
         transform="translate(-562.46291,-283.96091)"
         id="path54" />
    </clipPath>
  </defs>
  <g
     id="layer-MC0">
    <path
       id="path1"
       d="m 0,0 c 0,-2.656 -1.736,-6.242 -4.493,-9.265 -2.841,-3.027 -6.609,-5.207 -11.102,-4.92 -4.006,0.29 -5.885,3.408 -5.885,7.568 0.147,10.676 11.487,19.934 23.912,19.934 5.745,0 12.753,-2.075 16.288,-6.417 C 14.948,3.873 9.514,-2.558 5.749,-7.946 c -4.815,-6.809 -8.748,-14.262 -15.273,-16.54 -3.223,0.665 -7.712,1.319 -10.546,1.41 -6.372,0.294 -11.257,0 -11.414,-1.788 -0.087,-1.788 5.353,-1.704 12.446,-1.704 2.201,0 5.588,0.284 7.771,0.567 2.131,-0.182 6.694,-0.469 10.791,-0.469 7.946,0 17.628,3.587 22.023,11.438 3.712,6.61 3.87,15.592 -0.861,21.83 0.721,0.753 2.589,2.275 4.731,3.409 2.2,1.13 4.8,1.98 7.302,1.98 1.973,0 3.383,-0.567 4.017,-1.036 0.864,-0.668 0.864,-1.042 1.095,-0.944 0.164,0.178 -0.147,0.944 -0.696,1.413 -0.795,0.661 -2.299,1.421 -4.416,1.421 -2.904,0 -5.578,-0.854 -7.701,-1.89 -1.967,-0.944 -4.171,-2.547 -5.109,-3.313 -4.09,4.349 -10.945,6.329 -17.477,6.329 -13.37,0 -27.054,-8.695 -27.219,-20.038 -0.08,-5.851 3.377,-8.884 9.119,-9.252 4.811,-0.29 9.062,1.788 12.116,4.811 2.919,2.933 4.728,6.718 4.728,10.211 0,3.401 -2.051,5.29 -4.409,5.381 C -5.906,5.472 -8.104,3.583 -9.055,2.264 -9.92,1.12 -10.158,0.182 -9.993,0.091 -9.773,0 -9.612,0.752 -8.573,1.98 -7.551,3.209 -5.598,4.535 -3.468,4.437 -1.431,4.335 0,2.733 0,0.091 Z m -8.349,-24.671 c 6.757,2.463 12.117,6.333 18.269,15.213 3.449,5.294 6.91,12.191 9.667,15.312 3.065,-4.734 2.362,-12.663 -1.336,-18.905 -5.046,-8.321 -11.967,-12.474 -19.987,-12.474 -1.892,0 -5.504,0.57 -6.613,0.854"
       style="fill:#38791e;fill-opacity:1;fill-rule:evenodd;stroke:none"
       transform="matrix(1.3333333,0,0,-1.3333333,539.7324,995.61013)"
       clip-path="url(#clipPath2)" />
    <path
       id="path3"
       d="m 0,0 c -1.186,0 -1.812,0.759 -1.812,2.181 0,0.566 0.157,1.414 0.475,2.166 1.809,0.576 4.472,1.711 6.761,3.029 2.365,1.421 4.877,3.304 5.031,5.756 0.07,1.238 -0.546,2.557 -2.278,2.557 H 8.1 C 5.969,15.689 3.618,14.454 1.333,13.041 -0.157,12.097 -1.655,10.962 -2.519,10.21 -3.702,9.16 -4.402,8.514 -5.434,7.376 -5.752,6.998 -6.064,6.617 -5.91,6.333 c 0.158,-0.185 0.399,-0.094 0.798,0.284 0.462,0.468 1.326,1.42 1.568,1.704 L -3.467,8.22 C -5.046,5.955 -5.752,4.251 -5.826,2.365 c -0.084,-2.449 1.26,-3.786 4.171,-3.786 2.677,0 5.588,1.236 8.88,3.884 1.428,1.132 3.94,3.595 4.965,4.731 0.466,0.465 0.784,0.934 0.627,1.214 C 12.656,8.604 12.421,8.514 11.946,8.037 10.455,6.424 8.653,4.728 7.156,3.499 3.699,0.661 1.022,0 0,0 m -0.857,5.402 c 0.93,1.883 2.893,4.899 4.157,6.321 1.567,1.795 2.753,2.731 3.457,2.731 0.713,0 1.032,-0.462 0.944,-1.322 C 7.624,11.813 6.449,9.825 4.482,8.22 2.824,6.9 0.707,5.857 -0.857,5.402"
       style="fill:#38791e;fill-opacity:1;fill-rule:evenodd;stroke:none"
       transform="matrix(1.3333333,0,0,-1.3333333,579.17707,1029.1401)"
       clip-path="url(#clipPath4)" />
    <path
       id="path5"
       d="m 0,0 c 0.962,0.759 2.058,2.547 2.526,3.873 0.959,2.642 0.791,5.098 0.714,7.747 0,1.043 -0.08,1.795 0.553,2.558 0.388,0.465 1.169,0.843 1.875,1.41 1.026,0.759 2.212,1.987 0.403,1.987 -0.553,0 -1.414,-0.283 -2.278,-1.035 C 3.24,16.064 2.684,15.304 2.526,14.938 0.717,13.034 -0.707,11.62 -2.113,10.392 -3.38,9.262 -4.633,8.314 -5.43,7.743 -5.815,7.467 -5.899,7.274 -5.815,6.991 c 0.15,-0.284 0.469,-0.091 0.78,0.101 0.633,0.375 1.89,1.316 2.988,2.264 1.34,1.137 3.009,2.649 3.793,3.597 v -0.098 c -0.875,-1.235 -2.299,-6.9 -3.712,-9.646 -1.725,-3.587 -3.699,-5.102 -5.266,-5.102 -1.414,0 -2.369,0.847 -2.289,2.362 0.084,1.319 1.109,2.362 1.813,2.838 1.022,0.675 1.574,1.421 1.728,2.358 0.165,1.042 -0.381,1.987 -1.49,2.078 -1.893,0.102 -3.695,-2.166 -4.017,-4.912 -0.311,-2.649 0.546,-5.672 4.731,-5.672 2.354,0 5.185,0.948 6.609,1.704 1.498,0.759 3.23,1.788 4.958,3.215 1.736,1.421 3.226,2.925 4.017,3.786 0.7,0.752 1.018,1.319 0.857,1.512 C 9.451,7.652 9.066,7.183 8.671,6.798 7.33,5.388 5.668,3.684 3.485,2.078 2.215,1.127 0.871,0.378 0,0"
       style="fill:#38791e;fill-opacity:1;fill-rule:evenodd;stroke:none"
       transform="matrix(1.3333333,0,0,-1.3333333,607.7988,1027.2456)"
       clip-path="url(#clipPath6)" />
    <path
       id="path7"
       d="m 0,0 c 0.875,0 1.498,-0.477 1.421,-1.697 -0.077,-1.519 -2.918,-5.581 -5.434,-8.23 -2.124,-2.361 -5.109,-4.443 -6.606,-4.443 -0.546,0 -0.949,0.283 -1.022,0.951 -0.164,1.225 1.169,3.685 4.395,7.46 C -4.416,-2.559 -1.571,0 0,0 m -7.561,-1.697 c -1.561,-0.955 -2.831,-1.995 -3.604,-2.657 -0.798,-0.653 -1.974,-1.788 -2.212,-2.082 -0.878,-0.933 -1.41,-1.692 -1.259,-1.979 0.157,-0.183 0.381,0 0.707,0.287 0.469,0.472 0.79,0.85 1.021,1.134 l 0.074,-0.098 c -1.421,-1.981 -2.04,-3.496 -2.194,-4.921 -0.322,-3.019 1.487,-3.862 3.223,-3.771 2.995,0.178 6.606,3.309 8.663,5.475 l 0.066,-0.094 c -0.699,-1.042 -1.168,-2.362 -1.102,-3.402 0.088,-1.133 0.791,-1.979 2.289,-1.979 2.599,0 5.2,2.266 6.76,3.771 1.494,1.425 3.397,3.415 4.422,4.55 0.858,0.937 1.253,1.413 1.022,1.696 -0.238,0.277 -0.633,-0.192 -1.102,-0.669 -0.864,-0.933 -2.145,-2.263 -3.796,-3.873 -1.25,-1.227 -2.74,-2.456 -3.528,-2.924 -0.629,-0.378 -1.413,-0.76 -1.815,-0.378 -0.305,0.283 -0.305,1.029 0.238,2.166 0.71,1.518 4.097,7.091 6.529,10.875 4.583,6.987 7.253,10.864 9.849,14.454 2.912,4.076 6.844,9.264 8.968,11.721 -0.084,0.385 -0.395,0.668 -1.175,0.668 -1.106,0 -2.046,-0.566 -2.915,-1.612 C 18.181,20.878 14.955,16.815 12.197,12.942 8.191,7.369 4.566,1.979 2.124,-2.274 H 2.047 C 2.355,-0.854 1.813,0.658 0.312,0.944 -1.889,1.326 -4.797,0 -7.561,-1.697"
       style="fill:#38791e;fill-opacity:1;fill-rule:evenodd;stroke:none"
       transform="matrix(1.3333333,0,0,-1.3333333,637.19013,1009.6011)"
       clip-path="url(#clipPath8)" />
    <path
       id="path9"
       d="m 0,0 c -1.184,0 -1.81,0.759 -1.81,2.181 0,0.566 0.151,1.414 0.47,2.166 1.802,0.576 4.482,1.711 6.764,3.029 2.365,1.421 4.881,3.304 5.041,5.756 0.078,1.238 -0.56,2.557 -2.288,2.557 H 8.106 C 5.973,15.689 3.61,14.454 1.333,13.041 -0.164,12.097 -1.659,10.962 -2.526,10.21 -3.709,9.16 -4.409,8.514 -5.431,7.376 -5.749,6.998 -6.054,6.617 -5.91,6.333 c 0.161,-0.185 0.398,-0.094 0.794,0.284 0.469,0.468 1.341,1.42 1.572,1.704 L -3.457,8.22 C -5.035,5.955 -5.749,4.251 -5.829,2.365 c -0.081,-2.449 1.263,-3.786 4.17,-3.786 2.68,0 5.592,1.236 8.89,3.884 1.424,1.132 3.941,3.595 4.962,4.731 0.47,0.465 0.791,0.934 0.626,1.214 C 12.663,8.604 12.432,8.514 11.953,8.037 10.465,6.424 8.655,4.728 7.159,3.499 3.694,0.661 1.021,0 0,0 m -0.864,5.402 c 0.941,1.883 2.914,4.899 4.164,6.321 1.578,1.795 2.746,2.731 3.457,2.731 0.713,0 1.032,-0.462 0.951,-1.322 C 7.628,11.813 6.444,9.825 4.479,8.22 2.831,6.9 0.7,5.857 -0.864,5.402"
       style="fill:#38791e;fill-opacity:1;fill-rule:evenodd;stroke:none"
       transform="matrix(1.3333333,0,0,-1.3333333,655.66533,1029.1401)"
       clip-path="url(#clipPath10)" />
    <path
       id="path11"
       d="m 0,0 c -1.344,-0.938 -9.293,-11.896 -13.3,-18.23 -2.284,-3.6 -1.892,-3.684 -0.395,-3.401 3.625,0.844 3.702,1.035 5.661,4.339 3.709,6.238 7.327,12.103 12.359,19.381 1.102,1.504 1.102,2.078 0.549,2.078 -0.707,0 -2.365,-1.133 -3.227,-1.795 -1.965,-1.606 -4.488,-3.208 -6.85,-4.727 -3.614,-2.264 -3.845,-1.992 -3.768,-2.366 0.08,-0.378 2.047,0 3.768,1.035 C -3.548,-2.643 -1.575,-1.222 0,0"
       style="fill:#38791e;fill-opacity:1;fill-rule:evenodd;stroke:none"
       transform="matrix(1.3333333,0,0,-1.3333333,706.54947,1001.9265)"
       clip-path="url(#clipPath12)" />
    <path
       id="path13"
       d="m 0,0 c -1.65,0 -3.313,0.951 -3.933,2.364 -0.164,0.383 -0.164,0.761 -0.395,0.658 -0.231,0 -0.231,-0.658 -0.081,-1.22 0.476,-1.603 2.278,-2.933 4.563,-2.933 7.867,0 17.624,7.94 23.377,17.013 2.989,4.636 4.632,9.825 4.475,12.957 -0.067,2.166 -1.102,4.244 -3.223,4.72 -2.75,0.654 -8.179,-1.228 -11.175,-6.149 -2.985,-4.912 -2.508,-10.108 0.868,-10.769 1.724,-0.378 3.467,0.559 4.878,1.889 0.793,0.76 1.182,1.512 1.01,1.603 -0.139,0.284 -0.535,-0.283 -1.088,-0.752 -0.938,-0.851 -2.589,-1.988 -3.848,-1.604 -1.729,0.561 -1.268,4.155 0.937,7.93 2.757,4.733 6.039,7.561 8.031,7.001 0.937,-0.192 1.333,-1.138 1.168,-2.551 C 25.333,27.41 23.686,23.919 20.147,17.777 17.853,13.895 13.608,8.229 10.535,5.388 6.452,1.428 2.988,0 0.073,0 Z"
       style="fill:#38791e;fill-opacity:1;fill-rule:evenodd;stroke:none"
       transform="matrix(1.3333333,0,0,-1.3333333,698.4688,1041.4931)"
       clip-path="url(#clipPath14)" />
    <path
       id="path15"
       d="M 0,0 C 2.302,0.854 4.097,1.89 5.521,2.925 7.48,4.444 8.51,6.142 8.51,8.128 c 0,1.606 -1.03,2.933 -3.231,2.933 -2.277,0 -4.562,-0.858 -6.284,-2.079 C -2.429,7.937 -3.85,6.242 -4.241,4.629 -4.473,3.594 -4.396,2.74 -4.08,2.173 c 0.23,-0.469 0.634,-0.567 0.787,-0.469 0.165,0.186 -0.08,0.276 -0.153,0.759 -0.085,0.462 0,1.131 0.229,1.981 0.4,1.413 1.184,2.55 2.285,3.493 1.103,0.944 2.666,1.419 3.777,1.419 1.178,0 1.885,-0.759 1.885,-1.802 0,-2.732 -2.683,-5.85 -7.235,-8.114 -0.941,-0.476 -1.494,-1.144 -1.345,-1.518 0.088,-0.186 0.633,0.182 1.107,0.476 0.619,0.374 1.417,0.752 2.05,0.657 1.333,-0.199 1.178,-2.745 0.315,-4.818 -2.839,-6.616 -6.306,-8.229 -8.495,-8.313 -1.743,-0.102 -2.695,0.559 -2.45,1.697 0.15,0.752 0.871,1.41 1.344,1.802 0.787,0.654 1.336,1.126 1.494,1.98 0.23,1.137 -0.484,2.166 -1.817,2.166 -1.888,0 -3.617,-1.505 -3.939,-3.877 -0.374,-3.111 2.051,-4.531 4.894,-4.629 2.663,0 5.432,0.945 7.708,2.463 2.509,1.599 4.568,3.877 5.264,6.519 0.472,1.704 0.398,3.691 -0.78,4.811 C 2.215,-0.56 1.273,-0.091 0,0"
       style="fill:#38791e;fill-opacity:1;fill-rule:evenodd;stroke:none"
       transform="matrix(1.3333333,0,0,-1.3333333,752.38667,1011.118)"
       clip-path="url(#clipPath16)" />
    <path
       id="path17"
       d="m 0,0 c -1.641,0 -3.289,0.951 -3.922,2.364 -0.165,0.383 -0.165,0.761 -0.395,0.658 -0.245,0 -0.245,-0.658 -0.078,-1.22 0.473,-1.603 2.275,-2.933 4.571,-2.933 7.851,0 17.616,7.94 23.358,17.013 2.992,4.636 4.654,9.825 4.493,12.957 -0.088,2.166 -1.109,4.244 -3.24,4.72 -2.75,0.654 -8.177,-1.228 -11.165,-6.149 -2.992,-4.912 -2.516,-10.108 0.864,-10.769 1.728,-0.378 3.464,0.559 4.877,1.889 0.795,0.76 1.173,1.512 1.033,1.603 -0.165,0.284 -0.564,-0.283 -1.106,-0.752 -0.952,-0.851 -2.606,-1.988 -3.865,-1.604 -1.73,0.561 -1.258,4.155 0.947,7.93 2.753,4.733 6.064,7.561 8.03,7.001 0.946,-0.192 1.324,-1.138 1.176,-2.551 -0.23,-2.747 -1.879,-6.238 -5.42,-12.38 C 17.866,13.895 13.622,8.229 10.539,5.388 6.459,1.428 2.999,0 0.087,0 Z"
       style="fill:#38791e;fill-opacity:1;fill-rule:evenodd;stroke:none"
       transform="matrix(1.3333333,0,0,-1.3333333,752.9128,1041.4931)"
       clip-path="url(#clipPath18)" />
    <path
       id="path19"
       d="m 0,0 c 20.536,27.293 39.327,64.022 52.78,107.025 17.481,55.872 8.863,96.775 -1.13,121.151 -12.355,30.122 -34.633,53.247 -61.125,63.447 -13.686,5.273 -27.91,7.946 -42.277,7.946 -30.374,0 -54.041,-11.723 -65.107,-18.435 6.219,46.716 46.055,37.535 74.855,64.153 l -1.92,0.587 c -41.861,11.038 -64.544,-13.152 -73.063,-36.992 -4.009,48.578 -31.51,69.536 -78.702,67.448 1.293,-52.212 31.286,-70.795 77.854,-69.962 -3.009,-9.504 -3.781,-18.745 -2.634,-25.462 -10.89,6.669 -34.735,18.663 -65.472,18.663 -14.367,0 -28.59,-2.673 -42.278,-7.946 -26.491,-10.2 -48.769,-33.325 -61.124,-63.447 -9.993,-24.376 -18.611,-65.279 -1.13,-121.151 C -277.02,64.022 -258.228,27.293 -237.693,0 h -170.033 v -156.127 h 577.759 l 0,156.127 z"
       style="fill:#38791e;fill-opacity:1;fill-rule:evenodd;stroke:none"
       transform="matrix(1.3333333,0,0,-1.3333333,802.48693,752.93573)"
       clip-path="url(#clipPath20)" />
    <path
       id="path21"
       d="m 0,0 c 22.197,21.21 45.101,57.002 63.33,116.425 28.663,93.399 -11.812,157.587 -57.702,175.254 -57.869,22.283 -104.84,-12.474 -106.638,-13.835 -1.813,1.361 -48.79,36.118 -106.641,13.835 -45.893,-17.667 -86.37,-81.855 -57.709,-175.254 C -247.124,57.002 -224.223,21.21 -202.023,0 H -382.727 V -141.795 H 180.7 L 180.7,0 Z"
       style="fill:#ffffff;fill-opacity:1;fill-rule:nonzero;stroke:none"
       transform="matrix(1.3333333,0,0,-1.3333333,778.7096,762.4904)"
       clip-path="url(#clipPath22)" />
    <path
       id="path23"
       d="M 757.566,257.279 H 208.471 v 127.463 h 549.095 z"
       style="fill:#38791e;fill-opacity:1;fill-rule:nonzero;stroke:none"
       transform="matrix(1.3333333,0,0,-1.3333333,0,1285.0347)"
       clip-path="url(#clipPath24)" />
    <path
       id="path25"
       d="m 0,0 c 0.913,1.853 3.016,1.412 4.577,-0.607 1.854,-2.399 6.312,-4.627 6.312,-4.627 0,0 -4.426,4.23 -3.58,8.11 0.469,2.192 3.797,3.98 5.749,1.792 h 0.004 c 0.651,-0.634 1.543,-1.031 2.522,-1.031 1.26,0 2.39,0.658 3.031,1.655 L 21.834,-5.234 H 18.45 v -5.793 c 0,-1.394 -1.641,-1.545 -5.742,-1.545 -4.164,0 -3.828,-2.516 -3.828,-2.516 v -6.072 c 0,0 0.844,4.325 2.082,5.012 2.908,1.631 8.807,-1.331 10.123,3.051 l 3.562,7.863 -5.438,19.897 -28.023,-15.73 2.519,-2.379 v -9.199 l 9.567,5.399 c 0,0 -4.874,4.079 -3.272,7.246"
       style="fill:#38791e;fill-opacity:1;fill-rule:nonzero;stroke:none"
       transform="matrix(1.3333333,0,0,-1.3333333,600.2904,467.1108)"
       clip-path="url(#clipPath26)" />
    <path
       id="path27"
       d="m 0,0 c -1.41,-0.759 -7.498,-3.247 -9.955,-2.077 -2.456,1.155 -1.228,3.737 -1.228,3.737 0,0 -3.411,-2.435 -3.411,-5.502 0,-4.414 3.369,-6.405 3.369,-6.405 v -4.538 h 3.856 l 0.493,3.272 H 1.61 l -0.371,-3.263 4.587,-0.009 0.364,3.272 h 2.802 l 0.2,-3.263 h 4.5 l -0.364,3.263 4.625,1.964 C 26.592,-5.606 16.491,10.814 16.491,10.814 16.491,10.814 8.537,4.605 0,0"
       style="fill:#38791e;fill-opacity:1;fill-rule:nonzero;stroke:none"
       transform="matrix(1.3333333,0,0,-1.3333333,591.22067,742.7768)"
       clip-path="url(#clipPath28)" />
    <path
       id="path29"
       d="M 0,0 H 6.738 L 9.391,33.93 H 2.635 Z"
       style="fill:#38791e;fill-opacity:1;fill-rule:nonzero;stroke:none"
       transform="matrix(1.3333333,0,0,-1.3333333,658.73307,676.2756)"
       clip-path="url(#clipPath30)" />
    <path
       id="path31"
       d="m 0,0 h 16.008 l -2.65,33.93 H -2.67 Z"
       style="fill:#38791e;fill-opacity:1;fill-rule:nonzero;stroke:none"
       transform="matrix(1.3333333,0,0,-1.3333333,674.81387,676.2756)"
       clip-path="url(#clipPath32)" />
    <path
       id="path33"
       d="M 0,0 -20.465,27.507 V 7.733 L -28.006,-7.491 -14.626,0 Z"
       style="fill:#38791e;fill-opacity:1;fill-rule:nonzero;stroke:none"
       transform="matrix(1.3333333,0,0,-1.3333333,625.8796,447.56067)"
       clip-path="url(#clipPath34)" />
    <path
       id="path35"
       d="m 0,0 c -0.542,3.589 -3.628,6.341 -7.369,6.341 -1.007,0 -1.974,-0.21 -2.852,-0.57 -1.221,2.442 -3.741,4.113 -6.659,4.113 -1.959,0 -3.736,-0.76 -5.069,-1.998 -0.833,3.192 -3.738,5.542 -7.195,5.542 -3.45,0 -6.35,-2.35 -7.186,-5.542 -1.326,1.238 -3.097,1.998 -5.06,1.998 -2.925,0 -5.447,-1.671 -6.673,-4.113 -0.871,0.36 -1.843,0.57 -2.844,0.57 -2.233,0 -4.217,-0.979 -5.58,-2.528 l 13.324,28.719 -19.178,67.29 v 15.74 l -30.159,-0.057 5.15,-7.817 -5.15,-7.866 h 15.075 L -101.876,0 -68.44,56.459 C -51.823,42.2 -57.359,5.362 -58.167,0.533 -58.191,0.404 -58.233,0.28 -58.251,0.149 V -4.523 H 0.011 v 0.44 4.034 l 0,0.049 z"
       style="fill:#38791e;fill-opacity:1;fill-rule:nonzero;stroke:none"
       transform="matrix(1.3333333,0,0,-1.3333333,716.2748,719.65187)"
       clip-path="url(#clipPath36)" />
    <path
       id="path37"
       d="M 0,0 H 55.802 L 56.886,27.596 -1.113,22.432 Z"
       style="fill:#38791e;fill-opacity:1;fill-rule:nonzero;stroke:none"
       transform="matrix(1.3333333,0,0,-1.3333333,640.44013,762.47867)"
       clip-path="url(#clipPath38)" />
    <path
       id="path39"
       d="m 0,0 c 1.98,-1.872 4.549,-2.07 4.549,-2.07 0,0 1.928,-0.365 5.21,-0.556 v -11.783 l 8.45,4.74 v 7.109 h 0.962 c 5.458,0.368 12.026,1.391 18.993,3.753 l 2.242,0.696 V -63.15 h 4.888 V 3.429 l 4.801,1.499 v 11.076 l -3.062,3.2 h -1.739 v 14.192 l 1.47,1.653 3.331,-1.042 v 15.607 l -3.062,3.208 h -1.739 v 40.617 c 0,0 0.007,0.006 0.007,0.014 0,1.359 -1.095,2.454 -2.445,2.454 -1.365,0 -2.45,-1.095 -2.45,-2.454 V 93.432 52.822 H 38.667 L 35.606,49.614 V 38.54 l 4.8,-1.498 -19.202,-10.777 v -0.007 c -2.047,-1.184 -3.412,-3.394 -3.412,-5.913 0,-0.42 0.032,-0.817 0.109,-1.186 l -39.084,21.933 v -9.188 c 0,0 19.15,-3.917 25.756,-18.428 h 0.14 23.308 L 40.406,27.84 v -8.636 h -1.739 l -3.061,-3.2 V 5.871 H 4.549 l 0.024,7.605 c 0,0 -6.837,-0.197 -6.837,-7.605 0,-2.832 0.987,-4.648 2.208,-5.826 -1.396,0.105 -34.846,2.964 -21.127,31.859 0,0 -2.834,-0.879 -5.322,-5.069 -1.851,-3.119 -5.598,-10.707 -4.143,-19.673 2.551,-15.474 -1.889,-22.727 -5.636,-27.325 h 10.521 v 8.494 l 5.364,-8.494 L 0,-8.746 Z"
       style="fill:#38791e;fill-opacity:1;fill-rule:nonzero;stroke:none"
       transform="matrix(1.3333333,0,0,-1.3333333,620.14067,538.76053)"
       clip-path="url(#clipPath40)" />
    <path
       id="path41"
       d="m 0,0 c 0,-7.577 -0.733,-9.76 -3.847,-11.21 1.559,2.383 2.08,4.873 2.08,9.649 l -0.105,1.249 -1.039,34.255 c -0.208,6.127 -0.208,6.127 -0.208,7.681 0,9.029 1.247,14.43 4.568,19.516 -2.077,-6.956 -2.698,-12.456 -2.698,-20.971 z m -34.671,-12.353 c -0.625,0 -0.732,0.101 -1.872,2.282 l -22.941,51.074 c -5.814,12.56 -6.748,14.217 -11.42,19.307 4.672,-1.56 6.75,-4.463 13.286,-18.789 l 22.947,-50.759 c 0.824,-1.869 0.824,-1.869 0.824,-2.178 0,-0.522 -0.415,-0.937 -0.824,-0.937 m -35.193,1.453 c 1.663,3.429 2.591,7.167 3.012,12.559 0.415,-1.971 0.515,-2.902 0.515,-4.258 0,-4.151 -0.936,-6.228 -3.527,-8.301 m 90.515,-1.453 C 12.243,-10.794 10.374,-7.679 9.96,5.604 L 8.926,47.126 c 0.308,9.549 2.486,12.973 8.919,14.325 1.77,0.315 2.493,0.831 2.493,1.974 0,1.035 -0.723,1.656 -2.073,1.656 H 17.33 C 13.181,64.46 13.181,64.46 10.689,64.46 c -1.763,0 -3.534,0 -5.19,0.102 -0.833,0.108 -1.664,0.108 -2.287,0.108 -2.491,0 -3.321,-0.833 -6.018,-6.436 -1.041,-2.075 -1.869,-3.843 -2.593,-5.193 L -25.336,10.794 c -2.386,-5.19 -2.694,-5.607 -3.627,-5.607 -1.039,0 -1.868,1.456 -4.466,7.164 l -18.268,40.897 c -2.289,5.606 -3.531,8.409 -4.156,9.657 -1.037,2.075 -2.384,2.906 -4.667,2.906 -0.627,0 -1.975,-0.209 -3.634,-0.415 -1.868,-0.315 -3.844,-0.416 -6.232,-0.416 -1.448,0 -2.598,0 -3.217,0.101 -4.256,0.627 -4.256,0.627 -5.086,0.627 -1.767,0 -2.699,-0.728 -2.699,-1.975 0,-1.348 0.415,-1.56 4.256,-2.174 4.148,-0.735 7.996,-4.36 10.28,-9.763 V 40.272 c 0,-11.105 -0.101,-17.648 -0.626,-26.984 -0.934,-19.412 -2.073,-22.839 -8.408,-25.54 -1.867,-0.623 -2.388,-1.039 -2.388,-2.077 0,-1.137 0.834,-1.763 2.185,-1.763 0.618,0 1.452,0.104 2.278,0.205 4.157,0.521 5.61,0.628 8.31,0.628 2.383,0 4.666,-0.107 6.952,-0.415 5.606,-0.623 5.606,-0.623 6.227,-0.623 1.349,0 2.178,0.623 2.178,1.765 0,0.83 -0.724,1.554 -1.972,2.074 -5.399,1.865 -6.023,2.181 -7.783,4.567 -1.973,2.696 -2.906,6.852 -2.906,13.39 0,1.353 0.103,4.982 0.206,9.967 0.207,10.07 0.312,13.076 0.727,23.67 0,0.621 0.104,0.934 0.418,0.934 0.827,0 1.758,-1.869 5.19,-9.552 l 17.541,-39.859 c 2.389,-5.4 3.427,-7.058 4.667,-7.058 1.04,0 2.184,1.246 3.426,4.046 l 23.048,49.097 c 0.619,1.351 1.448,2.284 2.183,2.284 1.034,0 1.034,0 1.246,-6.848 l 0.934,-33.533 0.1,-1.246 c 0.105,-1.241 -0.417,-4.042 -1.034,-5.809 -0.625,-2.075 -2.185,-3.53 -4.36,-4.155 -2.08,-0.62 -2.701,-1.139 -2.701,-2.282 0,-0.934 0.722,-1.554 1.97,-1.554 0.731,0 1.457,0.102 2.384,0.208 5.611,0.619 7.999,0.825 13.085,0.825 5.187,0 8.614,-0.206 13.6,-0.825 0.721,-0.106 1.344,-0.106 1.76,-0.106 1.244,0 1.869,0.623 1.869,1.765 0,1.141 -0.83,1.762 -2.803,2.179"
       style="fill:#ffffff;fill-opacity:1;fill-rule:nonzero;stroke:none"
       transform="matrix(1.3333333,0,0,-1.3333333,424.6576,883.4904)"
       clip-path="url(#clipPath42)" />
    <path
       id="path43"
       d="m 0,0 c 1.611,2.155 2.334,3.944 2.334,5.825 0,1.164 -0.452,3.139 -1.169,4.749 L -16.4,51.701 c -0.087,0.362 -0.178,0.628 -0.178,0.895 0,0.45 0.358,0.812 0.897,0.812 0.45,0 0.628,-0.185 0.898,-0.895 L 1.525,14.338 C 3.767,9.047 4.031,8.154 4.031,5.914 4.031,2.777 2.778,0.9 0,0 m -17.206,25.899 c -9.766,0 -10.03,0.09 -10.03,1.88 0,1.163 1.702,5.557 5.194,13.53 3.319,7.344 3.76,8.156 4.39,8.156 0.624,0 0.624,0 3.943,-7.258 0.444,-0.991 5.112,-11.831 5.374,-12.55 0.188,-0.354 0.361,-0.803 0.537,-1.248 0.27,-0.539 0.361,-1.078 0.361,-1.344 0,-1.166 0,-1.166 -9.769,-1.166 M -45.515,-0.983 c 3.135,2.868 4.475,4.571 6.27,8.065 0.181,-4.658 -1.795,-7.082 -6.27,-8.065 m 66.75,0.892 c -4.48,1.53 -5.822,2.965 -8.06,8.604 l -25.36,59.143 h -2.059 C -17.028,61.561 -19.71,55.647 -22.67,49.281 -28.578,36.468 -32.432,27.693 -34.769,21.777 -41.666,4.033 -42.114,3.319 -46.234,0.541 c -3.133,-1.611 -3.133,-1.702 -3.133,-2.688 0,-1.163 0.708,-1.702 2.236,-1.702 0.72,0 1.789,0.089 2.869,0.179 3.135,0.448 5.735,0.624 7.26,0.624 1.074,0 2.323,-0.086 4.115,-0.264 5.287,-0.716 5.287,-0.716 6.097,-0.716 1.617,0 2.325,0.443 2.325,1.521 0,1.255 -0.708,1.609 -3.489,1.789 -4.391,0.268 -7.44,3.14 -7.44,6.811 0,3.049 1.972,9.14 4.124,12.545 1.345,2.238 3.316,2.598 15.325,2.598 4.837,0 8.863,-0.176 10.032,-0.443 1.168,-0.27 1.518,-0.628 2.326,-2.603 L 0.269,8.871 C 0.806,7.709 1.078,6.455 1.078,5.376 c 0,-2.415 -1.619,-4.66 -3.858,-5.643 -2.769,-1.167 -2.955,-1.254 -2.955,-2.417 0,-0.81 0.626,-1.342 1.613,-1.342 0.535,0 1.26,0.091 2.061,0.177 3.226,0.627 8.153,1.073 11.115,1.073 2.779,0 5.822,-0.27 11.377,-1.073 0.804,-0.086 1.696,-0.177 2.148,-0.177 1.168,0 1.882,0.627 1.882,1.61 0,1.079 -0.535,1.52 -3.226,2.325"
       style="fill:#ffffff;fill-opacity:1;fill-rule:nonzero;stroke:none"
       transform="matrix(1.3333333,0,0,-1.3333333,523.75787,899.98773)"
       clip-path="url(#clipPath44)" />
    <path
       id="path45"
       d="M 0,0 C 0,3.492 -0.63,4.747 -3.138,6.897 -0.451,6.809 1.164,5.464 1.164,3.226 1.164,2.059 0.894,1.253 0,0 m -20.7,-47.31 c 0,-5.111 -1.791,-7.976 -5.376,-8.871 2.596,2.778 3.585,5.194 3.585,9.134 v 9.863 c 0,4.029 -0.625,6.453 -2.686,10.388 l -13.35,25.362 c -1.795,3.58 -3.945,6.448 -5.92,7.884 3.229,-0.539 4.931,-2.152 7.529,-7.257 l 12.992,-24.729 c 3.226,-6.989 3.226,-6.989 3.226,-11.377 z M 13.079,10.571 11.645,10.48 C 7.974,9.85 5.644,9.675 2.502,9.675 c -3.132,0 -6.897,0.272 -9.761,0.626 -0.813,0.091 -1.613,0.179 -2.066,0.179 -0.985,0 -1.784,-0.63 -1.784,-1.433 0,-0.984 0.799,-1.524 2.773,-1.877 4.305,-0.63 6.72,-2.69 6.72,-5.651 0,-3.578 -1.522,-6.895 -9.318,-20.603 -1.704,-3.05 -2.42,-3.945 -3.139,-3.945 -0.715,0 -1.069,0.54 -3.492,5.198 l -9.41,18.013 c -0.446,0.983 -0.893,2.593 -0.893,3.672 0,1.61 1.162,2.866 3.228,3.221 2.058,0.448 2.507,0.717 2.507,1.794 0,0.981 -0.717,1.611 -1.975,1.611 -0.444,0 -1.251,-0.088 -2.061,-0.179 -2.596,-0.354 -5.285,-0.538 -8.511,-0.538 -3.763,0 -10.663,0.362 -13.882,0.808 -0.903,0.091 -1.799,0.179 -2.336,0.179 -1.165,0 -1.881,-0.625 -1.881,-1.703 0,-1.074 0.716,-1.7 2.509,-1.972 4.839,-0.985 6.809,-2.68 10.481,-9.226 L -27.6,-24.999 c 2.6,-4.841 3.674,-8.426 3.674,-11.914 v -9.681 c 0,-6.27 -2.78,-9.5 -8.961,-10.481 -1.793,-0.362 -2.596,-0.899 -2.596,-1.973 0,-0.899 0.624,-1.431 1.609,-1.431 0.627,0 1.613,0.09 2.602,0.176 3.761,0.539 8.156,0.804 13.352,0.804 3.312,0 5.817,-0.086 7.525,-0.265 7.61,-0.715 7.61,-0.715 8.329,-0.715 1.436,0 2.152,0.443 2.152,1.431 0,1.259 -0.898,1.699 -4.031,2.063 -2.958,0.354 -5.646,1.61 -6.896,3.406 -1.166,1.519 -1.526,3.222 -1.526,6.532 v 12.997 c 0,4.75 0.178,5.289 5.108,13.708 l 3.764,6.635 C 5.374,3.676 7.073,5.911 12.54,7.347 c 1.708,0.266 2.24,0.716 2.24,1.7 0,0.803 -0.805,1.524 -1.701,1.524"
       style="fill:#ffffff;fill-opacity:1;fill-rule:nonzero;stroke:none"
       transform="matrix(1.3333333,0,0,-1.3333333,606.36653,824.71693)"
       clip-path="url(#clipPath46)" />
    <path
       id="path47"
       d="m 0,0 c -2.337,-3.583 -4.396,-5.282 -8.334,-7.346 3.675,3.225 5.372,5.108 7.167,7.883 3.223,5.199 5.197,13.264 5.197,21.06 0,7.884 -2.056,15.051 -6.273,21.684 -4.032,6.182 -8.513,9.856 -15.679,12.632 5.911,-0.806 10.21,-3.405 14.781,-8.958 C 2.779,39.783 5.821,31.004 5.821,21.06 5.821,12.728 3.935,5.825 0,0 m -38.979,1.526 c -4.482,6.72 -6.993,15.859 -6.993,25.804 0,8.605 1.793,15.059 5.555,20.25 3.771,5.024 9.324,7.977 15.146,7.977 15.417,0 27.955,-15.413 27.955,-34.409 0,-17.654 -9.498,-30.727 -22.222,-30.727 -7.435,0 -14.958,4.297 -19.441,11.105 m -7.435,-5.109 c -6.81,6.271 -10.486,15.058 -10.486,25.448 0,12.638 5.192,23.477 13.891,29.119 -4.035,-4.385 -5.291,-5.909 -6.724,-8.419 -3.407,-5.738 -5.47,-13.532 -5.47,-21.055 0,-8.335 2.604,-15.774 7.439,-21.598 4.125,-4.837 8.695,-7.705 16.938,-10.749 -6.097,0.628 -10.663,2.775 -15.588,7.254 m 26.068,63.262 c -22.399,0 -37.989,-15.504 -37.989,-37.814 0,-20.965 14.069,-34.849 35.396,-34.849 10.659,0 19.444,3.306 25.892,9.673 7.079,7.164 11.382,18.005 11.382,28.85 0,19.893 -14.426,34.14 -34.681,34.14"
       style="fill:#ffffff;fill-opacity:1;fill-rule:nonzero;stroke:none"
       transform="matrix(1.3333333,0,0,-1.3333333,864.4284,888.99693)"
       clip-path="url(#clipPath48)" />
    <path
       id="path49"
       d="m 0,0 c -3.403,0 -7.437,3.94 -11.283,11.022 -10.217,19.532 -10.312,19.711 -12.278,21.23 2.688,0 3.493,-0.621 5.643,-4.65 l 4.302,-8.072 c 1.342,-2.507 2.594,-5.014 3.942,-7.614 C -8.6,10.21 -7.437,8.331 -6.179,6.361 -3.403,2.688 -1.61,1.161 1.258,0.089 0.807,0 0.272,0 0,0 m -25.979,36.019 c -8.423,0 -9.407,0.628 -9.407,6.181 v 18.366 c 0,3.59 2.151,5.379 6.358,5.379 10.035,0 17.472,-7.528 17.472,-17.74 0,-4.842 -1.882,-8.689 -5.28,-10.752 -1.976,-1.167 -3.503,-1.434 -6.815,-1.434 z M -12,60.301 c 2.42,-3.226 3.756,-7.436 3.756,-11.558 0,-4.84 -1.608,-7.975 -5.55,-10.396 2.688,3.675 3.494,6.094 3.494,9.858 0,7.169 -3.138,13.083 -8.963,16.754 3.494,-0.897 5.29,-1.969 7.263,-4.658 M -43.812,13.079 c 0,-5.825 -0.893,-7.883 -4.386,-10.125 2.145,2.959 2.592,4.66 2.592,10.125 v 41.484 c 0,6.003 -0.534,7.445 -3.668,10.575 2.059,-0.536 3.221,-1.429 4.299,-3.315 1.078,-1.791 1.163,-2.594 1.163,-7.614 z M 12.549,5.019 7.888,4.656 C 7.625,4.656 4.93,6.089 4.393,6.539 2.87,7.614 2.87,7.614 -2.689,17.204 -9.852,29.476 -12,33.242 -12,34.048 c 0,0.628 0.444,1.077 1.519,1.521 6.361,2.598 10.307,8.421 10.307,15.052 0,5.649 -2.693,11.291 -6.906,14.517 -3.942,3.048 -9.756,4.481 -17.915,4.481 -2.327,0 -5.015,-0.091 -7.884,-0.27 -10.571,-0.538 -10.571,-0.538 -12.096,-0.538 -1.611,0 -3.223,0.087 -4.748,0.184 -6.182,0.624 -6.182,0.624 -6.54,0.624 -1.526,0 -2.334,-0.624 -2.334,-1.702 0,-0.896 0.716,-1.435 2.422,-1.699 6.991,-0.991 9.14,-3.678 9.14,-11.205 V 12.722 c 0,-6.538 -1.434,-9.768 -4.75,-10.844 -2.416,-0.717 -2.688,-0.892 -2.688,-1.878 0,-0.899 0.717,-1.432 1.789,-1.432 0.543,0 1.349,0.091 2.155,0.178 3.583,0.538 8.061,0.803 12.359,0.803 3.412,0 5.737,-0.087 10.313,-0.537 0.888,-0.088 1.607,-0.178 1.79,-0.178 0.982,0 1.608,0.539 1.608,1.436 0,0.989 -0.714,1.521 -2.863,1.877 -2.867,0.541 -5.469,2.156 -6.724,4.392 -1.161,2.062 -1.34,3.584 -1.34,10.035 v 12.457 c 0,3.133 0.449,3.495 4.837,3.495 6.182,0 7.52,-1.255 12.811,-11.921 5.65,-11.464 6.182,-12.456 8.964,-16.036 3.492,-4.569 6.003,-6.001 10.479,-6.001 5.106,0 11.556,2.957 11.556,5.372 0,0.363 -0.451,1.079 -0.712,1.079"
       style="fill:#ffffff;fill-opacity:1;fill-rule:nonzero;stroke:none"
       transform="matrix(1.3333333,0,0,-1.3333333,954.2292,903.44747)"
       clip-path="url(#clipPath50)" />
    <path
       id="path51"
       d="m 0,0 c 1.608,2.155 2.329,3.944 2.329,5.825 0,1.164 -0.452,3.139 -1.16,4.749 l -17.566,41.127 c -0.087,0.362 -0.178,0.628 -0.178,0.895 0,0.45 0.355,0.812 0.898,0.812 0.446,0 0.621,-0.185 0.897,-0.895 L 1.522,14.338 C 3.761,9.047 4.04,8.154 4.04,5.914 4.04,2.777 2.778,0.9 0,0 m -17.201,25.899 c -9.771,0 -10.037,0.09 -10.037,1.88 0,1.163 1.697,5.557 5.196,13.53 3.319,7.344 3.76,8.156 4.39,8.156 0.628,0 0.628,0 3.939,-7.258 0.455,-0.991 5.113,-11.831 5.375,-12.55 0.189,-0.354 0.367,-0.803 0.542,-1.248 0.275,-0.539 0.358,-1.078 0.358,-1.344 0,-1.166 0,-1.166 -9.763,-1.166 M -45.52,-0.983 c 3.133,2.868 4.484,4.571 6.269,8.065 C -39.07,2.424 -41.036,0 -45.52,-0.983 m 66.754,0.892 c -4.479,1.53 -5.823,2.965 -8.057,8.604 l -25.36,59.143 h -2.061 C -17.024,61.561 -19.713,55.647 -22.675,49.281 -28.588,36.468 -32.439,27.693 -34.769,21.777 -41.668,4.033 -42.114,3.319 -46.234,0.541 c -3.14,-1.611 -3.14,-1.702 -3.14,-2.688 0,-1.163 0.719,-1.702 2.237,-1.702 0.721,0 1.794,0.089 2.872,0.179 3.138,0.448 5.731,0.624 7.256,0.624 1.074,0 2.331,-0.086 4.122,-0.264 5.291,-0.716 5.291,-0.716 6.095,-0.716 1.611,0 2.329,0.443 2.329,1.521 0,1.255 -0.718,1.609 -3.501,1.789 -4.386,0.268 -7.435,3.14 -7.435,6.811 0,3.049 1.975,9.14 4.122,12.545 1.35,2.238 3.313,2.598 15.327,2.598 4.839,0 8.872,-0.176 10.038,-0.443 1.166,-0.27 1.521,-0.628 2.326,-2.603 L 0.268,8.871 c 0.535,-1.162 0.81,-2.416 0.81,-3.495 0,-2.415 -1.617,-4.66 -3.854,-5.643 -2.78,-1.167 -2.962,-1.254 -2.962,-2.417 0,-0.81 0.634,-1.342 1.62,-1.342 0.532,0 1.251,0.091 2.057,0.177 3.23,0.627 8.156,1.073 11.116,1.073 2.773,0 5.816,-0.27 11.374,-1.073 0.805,-0.086 1.702,-0.177 2.152,-0.177 1.165,0 1.877,0.627 1.877,1.61 0,1.079 -0.535,1.52 -3.224,2.325"
       style="fill:#ffffff;fill-opacity:1;fill-rule:nonzero;stroke:none"
       transform="matrix(1.3333333,0,0,-1.3333333,676.15493,899.98773)"
       clip-path="url(#clipPath52)" />
    <path
       id="path53"
       d="m 0,0 c 8.88,9.218 12.239,17.519 12.239,30.12 0,18.644 -8.885,32.782 -23.977,38.002 C -5.623,67.509 -1.28,65.155 3.554,60.035 10.559,52.764 14.308,42.211 14.308,30.323 14.308,16.387 9.37,5.939 0,0 m 9.692,63.042 c -7.495,6.382 -17.07,9.366 -29.993,9.366 -2.864,0 -6.116,-0.102 -9.871,-0.312 -12.827,-0.821 -13.225,-0.821 -16.872,-0.821 -2.766,0 -4.143,0.101 -8.484,0.308 -0.592,0.104 -1.093,0.104 -1.38,0.104 -1.485,0 -2.277,-0.618 -2.277,-1.857 0,-1.335 0.89,-1.956 2.863,-2.058 4.149,-0.206 6.909,-1.747 8.487,-4.833 1.284,-2.474 1.683,-5.663 1.683,-12.354 V 39.964 l 1.473,-3.422 v 15.485 c 0,9.675 -0.299,10.603 -4.237,15.235 4.636,-1.443 6.207,-4.22 6.207,-11.016 V 31.967 l 7.444,-17.208 1.636,-3.326 V 59.75 c 0,5.859 2.771,8.228 9.285,8.228 19.83,0 33.548,-15.643 33.548,-38.287 0,-20.379 -11.543,-34.378 -28.227,-34.378 -10.278,0 -15.464,5.764 -24.865,3.039 -2.966,-0.853 -3.947,-1.937 -7.299,-3.141 -3.558,-1.131 -3.558,-1.131 -3.558,-2.262 0,-1.133 0.599,-1.753 1.974,-1.753 0.698,0 1.584,0.105 2.669,0.207 3.058,0.413 8.486,0.723 11.744,0.723 2.17,0 5.13,-0.103 8.683,-0.415 4.735,-0.41 9.176,-0.619 12.14,-0.619 10.656,0 20.226,4.327 27.627,12.354 7.498,8.236 12.039,19.968 12.039,31.291 0,11.425 -4.344,21.407 -12.439,28.305"
       style="fill:#ffffff;fill-opacity:1;fill-rule:nonzero;stroke:none"
       transform="matrix(1.3333333,0,0,-1.3333333,749.95053,906.42013)"
       clip-path="url(#clipPath54)" />
  </g>
</svg>
